<svg width="413" height="184" viewBox="0 0 413 184" fill="none" xmlns="http://www.w3.org/2000/svg">
<g clip-path="url(#clip0_137_565)">
<path d="M375.215 119.605C388.762 119.605 401.319 114.417 408.783 106.805C410.183 105.405 410.183 103.763 408.783 102.364L400.666 94.3776C399.024 92.7356 397.364 92.7356 395.479 94.3776C392.307 97.1578 385.347 101.972 375.962 101.972C364.057 101.972 354.56 93.8552 353.16 80.9431H408.391C411.302 80.9431 412.944 80.0474 412.944 76.7634C413.84 49.4092 395.591 30.8994 371.894 30.8994C347.059 30.8994 330.975 51.2938 330.975 75.364C330.993 101.991 350.25 119.605 375.215 119.605ZM354.056 65.7732C354.056 59.1866 360.139 48.5509 372.305 48.5509C385.217 48.5509 389.658 59.821 389.658 64.1312C389.658 64.8963 389.023 65.7732 387.885 65.7732H354.056V65.7732ZM4.47818 20.3944H86.3169V2.79886C86.3169 1.25016 85.0667 0 83.518 0H4.47818C2.92948 0 1.67932 1.25016 1.67932 2.79886V17.5955C1.67932 19.1256 2.92948 20.3944 4.47818 20.3944ZM2.68691 117.571H83.6487C85.1227 117.571 86.3356 116.377 86.3356 114.884V99.8634C86.3356 98.3893 85.1414 97.1765 83.6487 97.1765H0V114.884C0 116.358 1.19418 117.571 2.68691 117.571Z" fill="black"/>
<path d="M60.4554 20.3936L0 97.1757H27.037L86.3169 20.3936H60.4554Z" fill="black"/>
<path d="M136.772 119.605C150.318 119.605 162.876 114.417 170.34 106.805C171.739 105.405 171.739 103.763 170.34 102.364L162.223 94.3776C160.581 92.7356 158.92 92.7356 157.036 94.3776C153.864 97.1578 146.904 101.972 137.518 101.972C125.614 101.972 116.116 93.8552 114.717 80.9431H169.948C172.859 80.9431 174.501 80.0474 174.501 76.7634C175.396 49.4092 157.148 30.8994 133.451 30.8994C108.615 30.8994 92.5312 51.2938 92.5312 75.364C92.5499 101.991 111.806 119.605 136.772 119.605ZM115.613 65.7732C115.613 59.1866 121.695 48.5509 133.861 48.5509C146.773 48.5509 151.214 59.821 151.214 64.1312C151.214 64.8963 150.58 65.7732 149.441 65.7732H115.613ZM315.414 117.571H299.964C298.453 117.571 297.277 116.395 297.277 114.884V2.68691C297.277 1.17552 298.453 0 299.964 0H315.414C316.925 0 318.101 1.17552 318.101 2.68691V114.865C318.101 116.395 316.925 117.571 315.414 117.571ZM201.538 117.571H216.987C218.331 117.571 219.674 116.395 219.674 114.884V51.2192H248.055V114.865C248.055 116.377 249.23 117.552 250.742 117.552H266.191C267.703 117.552 268.878 116.377 268.878 114.865V52.7306C268.878 51.8909 269.55 51.2192 270.558 51.2192H285.335C286.847 51.2192 288.022 50.2116 288.022 48.8681V35.4336C288.022 33.9222 286.847 32.9146 285.335 32.9146H270.558C269.55 32.9146 268.878 32.075 268.878 31.2353V12.5949C268.878 11.0835 267.703 9.90797 266.191 9.90797H250.742C249.23 9.90797 248.055 11.0835 248.055 12.5949V32.9146H219.674V12.5949C219.674 11.0835 218.331 9.90797 216.987 9.90797H201.538C200.026 9.90797 198.851 11.0835 198.851 12.5949V31.2353C198.851 32.075 198.179 32.9146 197.171 32.9146H182.225C180.714 32.9146 179.706 33.9222 179.706 35.4336V48.5323C179.706 50.0436 180.714 51.2192 182.225 51.2192H197.171C198.179 51.2192 198.851 51.8909 198.851 52.7306V114.865C198.851 116.395 200.026 117.571 201.538 117.571V117.571Z" fill="black"/>
<path d="M227.545 172.258L219.709 183.584H223.851L241.745 156.976H237.677L230.064 168.62L225.717 156.976H221.537L227.545 172.258ZM212.152 156.174C209.371 156.174 206.89 157.629 205.024 159.869H204.968L207.972 140.78H204.371L198.848 175.468H202.486L202.915 172.575H203.027C204.091 174.665 206.199 176.121 208.812 176.121C214.596 176.121 218.57 171.344 219.429 165.989C220.25 160.839 217.563 156.174 212.152 156.174ZM215.79 166.101C215.193 169.795 212.525 172.911 208.606 172.911C204.8 172.911 203.195 169.646 203.774 166.101C204.315 162.611 207.039 159.402 210.752 159.402C214.671 159.402 216.387 162.443 215.79 166.101Z" fill="black"/>
<path d="M360.772 140.779H348.289C347.431 140.779 346.703 141.395 346.572 142.253L341.516 174.272C341.422 174.907 341.908 175.485 342.542 175.485H348.942C349.539 175.485 350.043 175.056 350.136 174.459L351.573 165.372C351.704 164.532 352.431 163.898 353.29 163.898H357.245C365.474 163.898 370.213 159.924 371.464 152.031C372.023 148.579 371.482 145.873 369.878 143.97C368.105 141.899 364.952 140.779 360.772 140.779V140.779ZM362.209 152.479C361.518 156.957 358.104 156.957 354.782 156.957H352.898L354.223 148.579C354.297 148.075 354.745 147.702 355.249 147.702H356.107C358.365 147.702 360.492 147.702 361.593 148.989C362.265 149.773 362.451 150.911 362.209 152.479V152.479ZM271.693 140.779H259.211C258.352 140.779 257.625 141.395 257.494 142.253L252.437 174.272C252.344 174.907 252.829 175.485 253.464 175.485H259.434C260.293 175.485 261.021 174.869 261.151 174.011L262.513 165.372C262.644 164.532 263.372 163.898 264.23 163.898H268.186C276.414 163.898 281.154 159.924 282.404 152.031C282.964 148.579 282.422 145.873 280.818 143.97C279.008 141.899 275.873 140.779 271.693 140.779ZM273.13 152.479C272.44 156.957 269.025 156.957 265.704 156.957H263.819L265.144 148.579C265.219 148.075 265.667 147.702 266.17 147.702H267.029C269.286 147.702 271.414 147.702 272.514 148.989C273.186 149.773 273.373 150.911 273.13 152.479V152.479ZM309.012 152.348H303.022C302.5 152.348 302.07 152.721 301.996 153.225L301.735 154.904L301.324 154.307C300.037 152.423 297.144 151.807 294.252 151.807C287.647 151.807 281.993 156.807 280.911 163.842C280.333 167.35 281.154 170.69 283.132 173.022C284.96 175.168 287.554 176.064 290.67 176.064C295.988 176.064 298.954 172.649 298.954 172.649L298.693 174.31C298.6 174.944 299.085 175.523 299.719 175.523H305.112C305.97 175.523 306.698 174.907 306.829 174.048L310.057 153.579C310.082 153.428 310.075 153.272 310.034 153.124C309.993 152.975 309.921 152.837 309.821 152.72C309.722 152.603 309.598 152.509 309.458 152.444C309.318 152.38 309.166 152.347 309.012 152.348V152.348ZM300.69 163.991C300.111 167.406 297.406 169.701 293.935 169.701C292.2 169.701 290.819 169.141 289.923 168.078C289.046 167.033 288.711 165.54 288.99 163.879C289.532 160.502 292.293 158.132 295.689 158.132C297.387 158.132 298.768 158.692 299.682 159.756C300.578 160.819 300.951 162.331 300.69 163.991V163.991ZM398.109 152.348H392.119C391.615 152.348 391.168 152.721 391.093 153.225L390.832 154.904L390.421 154.307C389.134 152.423 386.242 151.807 383.349 151.807C376.744 151.807 371.09 156.807 370.008 163.842C369.43 167.35 370.251 170.69 372.229 173.022C374.057 175.168 376.651 176.064 379.767 176.064C385.085 176.064 388.051 172.649 388.051 172.649L387.79 174.31C387.697 174.944 388.182 175.523 388.817 175.523H394.209C395.067 175.523 395.795 174.907 395.926 174.048L399.154 153.579C399.228 152.908 398.743 152.348 398.109 152.348V152.348ZM389.768 163.991C389.19 167.406 386.484 169.701 383.014 169.701C381.278 169.701 379.897 169.141 379.002 168.078C378.125 167.033 377.789 165.54 378.069 163.879C378.61 160.502 381.372 158.132 384.767 158.132C386.465 158.132 387.846 158.692 388.761 159.756C389.675 160.819 390.029 162.331 389.768 163.991V163.991ZM340.881 152.348H334.873C334.295 152.348 333.754 152.628 333.436 153.113L325.152 165.335L321.644 153.598C321.535 153.242 321.315 152.931 321.016 152.709C320.717 152.487 320.355 152.367 319.983 152.367H314.068C313.359 152.367 312.855 153.076 313.079 153.747L319.703 173.171L313.471 181.96C312.986 182.65 313.471 183.602 314.311 183.602H320.319C320.897 183.602 321.42 183.322 321.737 182.856L341.721 154.009C342.206 153.281 341.721 152.348 340.881 152.348V152.348ZM405.143 141.675L400.012 174.291C399.919 174.925 400.404 175.485 401.038 175.485H406.188C407.046 175.485 407.774 174.869 407.905 174.011L412.961 141.992C412.984 141.844 412.974 141.693 412.933 141.55C412.892 141.406 412.82 141.273 412.723 141.159C412.625 141.046 412.504 140.955 412.368 140.892C412.232 140.83 412.085 140.798 411.935 140.798H406.169C405.666 140.798 405.236 141.171 405.143 141.675" fill="black"/>
</g>
<defs>
<clipPath id="clip0_137_565">
<rect width="413" height="183.587" fill="white"/>
</clipPath>
</defs>
</svg>
