<svg width="550" height="134" viewBox="0 0 550 134" fill="none" xmlns="http://www.w3.org/2000/svg">
<path d="M522.076 46.244V40.4846H549.045V130.563H522.076V124.811C514.933 129.677 506.599 132.503 497.969 132.985C489.34 133.467 480.742 131.587 473.102 127.547C465.461 123.507 459.067 117.46 454.607 110.057C450.147 102.653 447.79 94.1739 447.79 85.531C447.79 76.8881 450.147 68.4088 454.607 61.0055C459.067 53.6022 465.461 47.5552 473.102 43.5152C480.742 39.4751 489.34 37.595 497.969 38.0772C506.599 38.5593 514.933 41.3854 522.076 46.2514V46.244ZM497.549 108.705C511.044 108.705 521.988 98.3219 521.988 85.5273C521.988 72.7254 511.044 62.3497 497.549 62.3497C484.054 62.3497 473.111 72.7254 473.111 85.5273C473.111 98.3219 484.054 108.698 497.549 108.698V108.705ZM399.883 38.0585C389.116 38.0585 378.918 41.4064 372.096 50.6318V40.4846H345.246V130.563H372.428V83.2191C372.428 69.5249 381.617 62.8216 392.678 62.8216C404.529 62.8216 411.335 69.901 411.335 83.0348V130.563H438.281V73.2785C438.281 52.3131 421.615 38.0585 399.883 38.0585ZM306.243 52.2173V40.4846H278.626V130.563H306.302V88.5066C306.302 74.3183 321.685 66.6858 332.356 66.6858L332.673 66.7005V40.492C321.722 40.492 311.649 45.1821 306.243 52.2173ZM237.551 46.244V40.4846H264.519V130.563H237.551V124.811C230.408 129.677 222.073 132.503 213.444 132.985C204.814 133.467 196.217 131.587 188.576 127.547C180.936 123.507 174.541 117.46 170.081 110.057C165.621 102.653 163.265 94.1739 163.265 85.531C163.265 76.8881 165.621 68.4088 170.081 61.0055C174.541 53.6022 180.936 47.5552 188.576 43.5152C196.217 39.4751 204.814 37.595 213.444 38.0772C222.073 38.5593 230.408 41.3854 237.551 46.2514V46.244ZM213.024 108.705C226.519 108.705 237.462 98.3219 237.462 85.5273C237.462 72.7254 226.519 62.3497 213.024 62.3497C199.529 62.3497 188.585 72.7254 188.585 85.5273C188.585 98.3219 199.529 108.698 213.024 108.698V108.705ZM124 130.563H152.229V0.33853H124V130.563ZM104.547 0.316406H75.2924C75.2924 24.2905 64.2751 46.2956 45.0574 60.6904L33.4649 69.3701L78.3749 130.6H115.291L73.9724 74.2593C93.5587 54.7614 104.547 28.5234 104.547 0.316406ZM0 130.6H29.8884V0.316406H0V130.6Z" fill="black"/>
</svg>
