<svg width="436" height="164" viewBox="0 0 436 164" fill="none" xmlns="http://www.w3.org/2000/svg">
<g clip-path="url(#clip0_137_544)">
<path d="M0 57.6867V81.4048L63.8837 74.3728V48.7478L0 57.6867ZM20.3808 82.835V164.001H43.7413V80.4513L20.3808 82.835ZM72.4651 47.5559V164.001H97.1366V44.0995L72.4651 47.5559ZM101.666 43.5036V70.3205L137.183 66.3873V38.4978L101.666 43.5036ZM101.666 90.1053V117.399L125.026 116.088V88.1984L101.666 90.1053ZM101.666 137.065V164.001H137.183V135.992L101.666 137.065ZM229.314 25.5065V164.001H261.613V20.9774L229.314 25.5065ZM267.573 20.1431V51.9658L314.651 46.8408V13.4687L267.573 20.1431ZM267.573 75.9222V108.341L298.442 106.672V73.3001L267.573 75.9222ZM267.573 132.059V164.001H314.651V130.629L267.573 132.059ZM146.718 37.0675V163.881H174.727V33.1344L146.718 37.0675ZM179.971 134.681V163.881H220.733V133.489L179.971 134.681ZM420.25 11.9193C410 2.26522 395.102 -1.66792 378.654 0.715805V35.9949C385.328 35.6373 390.692 38.1402 393.076 43.0268C396.89 50.8931 392.956 62.5734 383.779 73.4193C369.596 90.2245 331.814 124.431 331.814 124.431L386.044 122.643C419.177 90.3437 431.096 70.678 433.122 46.1257C434.195 33.2536 429.547 20.7391 420.25 11.9193ZM435.029 164.001V127.053L325.14 130.39L435.029 164.001ZM325.14 130.271V163.881H435.029L325.14 130.271ZM372.337 1.43092C340.395 8.22453 324.782 31.7042 326.57 70.0821L360.657 67.1024C359.108 45.4106 365.782 40.2856 372.456 37.5443L372.337 1.43092Z" fill="#141414"/>
</g>
<defs>
<clipPath id="clip0_137_544">
<rect width="435.029" height="164" fill="white"/>
</clipPath>
</defs>
</svg>
