<svg width="300" height="167" viewBox="0 0 300 167" fill="none" xmlns="http://www.w3.org/2000/svg">
<path d="M153.255 124.907L120.151 36.2773H91.2773L138.765 163.722H167.638L215.126 36.2773H186.253L153.255 124.907Z" fill="black"/>
<path d="M63.3521 91.5901C60.8138 90.4267 50.2375 85.7732 48.228 84.9271C38.4978 80.6965 33.7384 76.043 33.7384 70.5433C33.7384 64.8321 38.1805 59.2266 47.3819 59.2266C53.8335 59.2266 59.6504 62.2937 65.3616 68.428L85.4566 53.8327C77.4186 41.5642 62.6118 33.9492 46.6416 33.9492C25.5947 33.9492 6.98037 47.5927 6.98037 70.4375C6.98037 86.302 15.9702 98.6763 34.4788 106.503C39.8727 108.83 43.6802 110.416 47.9107 112.214C54.045 114.858 63.881 118.877 63.881 127.655C63.881 136.328 55.2084 140.876 45.9012 140.876C37.5459 140.876 28.6618 135.588 21.0469 125.963L0 141.299C8.14376 153.462 24.6428 166.259 46.7473 166.259C71.6017 166.259 90.9563 151.029 90.9563 127.338C90.9563 111.791 81.9665 100.051 63.3521 91.5901Z" fill="black"/>
<path d="M268.956 140.348C262.822 140.348 257.64 136.646 254.89 131.358C252.775 127.339 252.775 120.993 252.775 115.599V62.7176H282.177L292.013 36.3825H252.669V0H225.699V119.724C225.699 125.224 226.017 130.3 228.132 136.963C233.949 153.991 249.919 166.154 268.956 166.154C279.85 166.154 290.955 161.923 299.205 154.308L282.283 134.954C278.687 138.127 273.821 140.348 268.956 140.348Z" fill="black"/>
</svg>
