<svg width="270" height="179" viewBox="0 0 270 179" fill="none" xmlns="http://www.w3.org/2000/svg">
<path fill-rule="evenodd" clip-rule="evenodd" d="M189.708 5.43139C199.431 0.570673 204.42 1.31761 204.546 6.17833C204.668 12.5345 203.67 21.0095 203.045 27.1167C199.307 60.2711 193.322 87.3167 192.824 121.467C208.908 79.8377 222.248 51.1713 239.58 15.6508C245.065 4.30858 248.681 6.42731 253.169 4.30858C270.749 -3.54471 271.371 1.31601 269.003 11.0374C260.526 46.3106 238.831 157.86 235.466 174.938C234.468 179.924 228.982 177.929 227.736 175.936C221.252 167.335 214.269 167.209 215.016 161.352C219.007 132.936 233.221 61.0196 236.837 44.0682C218.009 82.4544 198.559 130.69 188.588 157.86C186.467 163.594 182.603 163.222 180.234 158.983C176.741 152.874 170.257 149.884 169.262 142.905C165.769 120.593 173.125 77.9679 174.123 50.9223C164.024 80.3356 146.82 137.67 139.338 163.467C136.223 174.188 125.874 172.318 128.617 162.097C140.085 118.598 164.649 41.9462 175.245 14.4011C177.739 7.7991 184.344 8.17338 189.708 5.43139V5.43139ZM127.618 0.0727165C124.25 -0.674222 114.525 4.55916 108.541 5.433C106.673 5.93256 104.926 7.80072 104.304 9.29459C94.8254 31.1052 86.3493 51.7978 79.1185 70.4905C68.1986 72.4924 57.3084 74.6532 46.4513 76.972C55.3034 54.5381 64.1572 32.2296 72.7586 10.9138C76.9975 0.196404 65.7785 -0.801124 61.4111 9.91784C55.8016 23.7531 45.2028 49.7995 33.4841 80.0899C24.8811 82.2086 15.5292 84.5763 6.05526 87.4436C-0.926486 89.3117 -1.17715 91.1799 1.81479 95.4206C3.55983 97.663 6.80244 97.414 8.42375 99.1601C12.5389 103.396 15.0327 108.507 22.3856 109.254C15.6545 126.704 9.16932 144.527 3.4361 161.602C-0.304636 172.445 10.2925 174.689 14.2823 163.223C20.7659 144.902 27.6223 126.331 34.731 107.508C40.5912 106.263 54.68 103.272 67.771 100.28C57.4229 128.946 50.6902 150.509 47.9457 161.103C47.4492 163.096 48.4454 164.094 48.8182 165.09C52.1862 170.076 55.6762 170.325 60.1642 176.683C61.2873 178.429 65.4009 179.299 66.8984 175.062C75.8356 147.939 85.3546 121.012 95.4489 94.2977C99.3149 93.3002 106.298 91.6794 110.536 85.4485C118.017 74.23 120.138 76.4756 122.132 73.1088C124.375 68.7476 122.754 64.8828 114.776 65.7551C114.776 65.7551 111.782 66.0057 106.048 66.6289C115.023 43.8192 123.006 24.5016 128.49 9.66886C130.359 4.55916 130.611 0.819655 127.618 0.0727165V0.0727165Z" fill="black"/>
<path fill-rule="evenodd" clip-rule="evenodd" d="M119.211 141.686C120.499 140.035 121.667 138.33 122.721 136.756C127.414 129.741 122.846 125.617 118.015 129.747C117.325 130.387 116.609 131.086 115.897 131.811C115.105 129.308 114.319 126.803 113.539 124.296C115.753 121.554 117.908 118.74 119.747 115.856C127.51 103.692 112.318 96.7107 105.751 104.596C102.285 108.726 103.152 112.855 104.142 116.483C104.429 117.574 104.876 119.132 105.43 121.022C103.021 123.564 100.692 126.181 98.4444 128.87C90.8891 137.632 92.9898 148.913 100.922 151.395C105.704 152.894 110.217 150.71 114.127 147.226C114.315 147.723 114.495 148.196 114.671 148.644C116.776 153.9 123.342 152.273 120.74 145.891C120.322 144.818 119.798 143.375 119.211 141.686V141.686ZM108.458 130.66C109.1 132.703 109.791 134.85 110.481 136.905C109.617 137.632 108.741 138.367 107.858 138.883C104.787 140.678 102.531 138.758 106.495 133.377C107.143 132.448 107.807 131.548 108.458 130.66ZM110.937 115.337C110.709 114.755 110.578 114.184 110.458 113.73C108.236 105.344 117.75 107.584 112.937 113.105C112.254 113.887 111.633 114.661 110.937 115.337Z" fill="black"/>
</svg>
