<svg width="558" height="130" viewBox="0 0 558 130" fill="none" xmlns="http://www.w3.org/2000/svg">
<g clip-path="url(#clip0_137_575)">
<path d="M45.9456 0.000400961H38.0992C17.5592 0.000400961 0.0742188 16.8633 0.0742188 35.2536V91.525C0.204219 112.306 17.1646 129.141 38.1781 129.341H46.0246C67.0196 129.151 83.9799 112.348 84.1424 91.5808V77.3783H57.9521V90.7497C57.9521 98.104 51.5356 105.783 43.7681 105.783H40.3742C32.5278 105.783 26.1671 98.025 26.1671 90.7497V38.7683C26.1671 29.4175 32.5835 23.5536 40.3742 23.5536H43.7496C51.596 23.5536 57.9289 29.3758 57.9289 38.7683V51.9633H84.1424V35.2536C84.1424 16.8633 66.5646 0.000400961 45.9456 0.000400961ZM146.19 0.000400961H138.343C117.785 0.000400961 100.225 16.8633 100.225 35.2536V91.525C100.355 112.344 117.376 129.193 138.422 129.341H146.268C167.263 129.151 184.229 112.348 184.386 91.5808V35.314C184.386 16.8633 166.827 0.000400961 146.19 0.000400961ZM158.196 90.7497C158.196 98.104 151.784 105.783 144.012 105.783H140.623C132.776 105.783 126.416 98.025 126.416 90.7497V38.7683C126.416 29.4175 132.832 23.5536 140.623 23.5536H143.993C151.84 23.5536 158.177 29.3758 158.177 38.7683L158.196 90.7497ZM248.732 56.9868L224.055 1.99683H200.906V127.363H226.093V59.3361L247.046 105.63H248.732L270.196 59.3361V127.363H295.541V1.99683H273.924L248.732 56.9868ZM356.748 91.2511L336.463 1.99683H309.938L340.349 127.363H371.108L403.204 1.99683H376.675L356.748 91.2511ZM417.718 1.99683H443.574V127.34H417.718V1.99683ZM536.329 120.32L540.897 127.321H556.08L512.395 60.5758H497.213L516.829 90.615C517.286 91.3254 517.531 92.1518 517.535 92.9968C517.544 93.1825 517.544 93.3729 517.535 93.5633C516.764 100.713 510.682 106.145 503.411 106.173H499.27C491.316 106.15 484.877 99.78 484.854 91.9104V37.4265C484.863 29.529 491.284 23.0986 499.27 22.9918H503.411C511.369 23.0986 517.739 29.5568 517.651 37.4311V56.8336L542.898 95.5225C542.898 94.5104 543.056 93.5818 543.056 92.4583V36.8647C543.056 16.5058 526.37 0.000400961 505.784 0.000400961H496.957C487.081 -0.0453311 477.589 3.8226 470.558 10.7579C467.1 14.1678 464.357 18.233 462.49 22.7157C460.622 27.1983 459.667 32.0085 459.68 36.8647V92.4768C459.68 112.836 476.371 129.341 496.957 129.341H508.727C517.817 129.352 526.599 126.047 533.427 120.046C533.629 119.857 533.869 119.712 534.13 119.621C534.392 119.53 534.67 119.496 534.945 119.519C535.221 119.543 535.489 119.624 535.732 119.758C535.974 119.892 536.185 120.076 536.352 120.297L536.329 120.32V120.32Z" fill="black"/>
</g>
<defs>
<clipPath id="clip0_137_575">
<rect width="557.143" height="130" fill="white"/>
</clipPath>
</defs>
</svg>
