<svg width="226" height="226" viewBox="0 0 226 226" fill="none" xmlns="http://www.w3.org/2000/svg">
<path d="M102.401 121.501H129.801V112.401H126.801C126.801 115.901 124.201 118.501 120.301 118.501H116.101V104.801H120.601V101.801H102.301V104.801H106.901V118.501H102.301V121.501H102.401Z" fill="black"/>
<path d="M142.899 121.501H153.599L162.699 104.801H167.199V101.801H153.599V104.801H157.499L150.899 117.001L144.199 104.801H148.999V101.801H129.199V104.801H133.699L142.899 121.501Z" fill="black"/>
<path d="M47.8 101.801H28V104.801H32.5L41.7 121.501H52.4L61.4 104.801H66V101.801H52.3V104.801H56.3L49.7 117.001L43 104.801H47.8V101.801Z" fill="black"/>
<path d="M68.6016 111.7C68.6016 117.5 73.3016 122.2 82.7016 122.2C92.1016 122.2 96.7016 117.6 96.7016 111.7C96.7016 106 91.8016 101.4 82.6016 101.4C73.5016 101.3 68.6016 105.9 68.6016 111.7ZM87.6016 111.7C87.5016 115.3 86.1016 119 82.6016 119C79.3016 118.9 77.8016 115.2 77.8016 111.6C77.9016 107.8 79.7016 104.5 82.8016 104.5C86.0016 104.5 87.6016 107.9 87.6016 111.7Z" fill="black"/>
<path d="M169.801 111.7C169.801 117.5 174.501 122.2 183.901 122.2C193.301 122.2 197.901 117.6 197.901 111.7C197.901 106 193.001 101.4 183.801 101.4C174.701 101.3 169.801 105.9 169.801 111.7ZM184.001 104.5C187.101 104.6 188.801 107.9 188.701 111.7C188.601 115.3 187.201 119 183.701 119C180.301 118.9 178.901 115.2 178.901 111.6C179.101 107.7 180.901 104.4 184.001 104.5Z" fill="black"/>
<path d="M205.9 48.8L194.4 60.3C204.2 75.5 209.9 93.6 209.9 113C209.9 166.6 166.5 210 112.9 210C59.3 210 15.9 166.6 15.9 113C15.9 59.4 59.3 16 112.9 16C132.4 16 150.5 21.7 165.7 31.6L177.2 20.1C159 7.4 136.8 0 112.9 0C50.5 0 0 50.6 0 112.9C0 175.2 50.6 225.8 112.9 225.8C175.2 225.8 225.9 175.3 225.9 113C225.9 89.1 218.5 67 205.9 48.8Z" fill="black"/>
<path d="M169.801 4.5V7.7C176.701 11.4 183.101 15.8 189.101 20.7L172.901 36.8C179.001 41.6 184.501 47 189.201 53.1L205.301 37C210.201 43 214.601 49.4 218.301 56.2H221.401V4.5H169.801Z" fill="black"/>
</svg>
