<svg width="9272" height="226" viewBox="0 0 9272 226" fill="none" xmlns="http://www.w3.org/2000/svg"><path d="M1450.2 184.2c34 0 55-16.4 55-40.6 0-20.2-12.4-32.6-32.6-37l-36.4-8.4c-13.6-3-18.6-9.8-18.6-18.6 0-12.4 12.4-21 30.4-21 17.4 0 30.4 7.6 31.8 24.8h22.2c-.2-27.4-24-42.4-54.2-42.4-29.6 0-51.4 15.8-51.4 39.4 0 20.4 12.4 32.4 32.4 37l36.4 8.4c13.8 3.2 18.8 9.8 18.8 18.6 0 13.2-13.2 22.2-33.2 22.2-20.4 0-35-10.2-36.2-27h-22.2c1 28.8 23 44.6 57.8 44.6zm151.41-2.2v-65c0-24.6-16.2-35.6-42.6-35.6-23 0-41.2 10-42.2 31.2h20.4c.8-10.2 8.4-15.6 21.8-15.6s23 5 23 18v4.2l-36.8 6.2c-18 3.2-31.8 12.4-31.8 30 0 18.8 15.4 28.4 33.4 28.4 14.6 0 28.6-5 36.4-17.2V182h18.4zm-50.4-13.8c-11.6 0-18-5.2-18-13 0-8.8 5.6-13.6 17.8-15.8l31-5.2v6.2c0 19-15.4 27.8-30.8 27.8zm87.52 13.8v-54.2c0-16.4 9.2-29.6 25.6-29.6 13 0 21.4 7 21.4 26.2V182h20v-62.6c0-23.4-12.2-38-34.8-38-15.4 0-26.2 6.6-33.2 16.6V83.4h-19.2V182h20.2zm166.81 0v-65c0-24.6-16.2-35.6-42.6-35.6-23 0-41.2 10-42.2 31.2h20.4c.8-10.2 8.4-15.6 21.8-15.6s23 5 23 18v4.2l-36.8 6.2c-18 3.2-31.8 12.4-31.8 30 0 18.8 15.4 28.4 33.4 28.4 14.6 0 28.6-5 36.4-17.2V182h18.4zm-50.4-13.8c-11.6 0-18-5.2-18-13 0-8.8 5.6-13.6 17.8-15.8l31-5.2v6.2c0 19-15.4 27.8-30.8 27.8zm101.08 13.8h94.2v-19.4h-72.8V43.2h-21.4V182zm186.96 0v-65c0-24.6-16.2-35.6-42.6-35.6-23 0-41.2 10-42.2 31.2h20.4c.8-10.2 8.4-15.6 21.8-15.6s23 5 23 18v4.2l-36.8 6.2c-18 3.2-31.8 12.4-31.8 30 0 18.8 15.4 28.4 33.4 28.4 14.6 0 28.6-5 36.4-17.2V182h18.4zm-50.4-13.8c-11.6 0-18.01-5.2-18.01-13 0-8.8 5.61-13.6 17.81-15.8l31-5.2v6.2c0 19-15.4 27.8-30.8 27.8zm119.91-86.8c-13.4 0-24.8 5-32.4 15.4V43.2h-20.2V182h19.2v-14c7.4 10.4 19 15.8 33.6 15.8 24 0 44-18.4 44-51 0-32.8-19.8-51.4-44.2-51.4zm-5.2 16.4c18.4 0 28.4 15.2 28.4 35 0 19.6-10 34.8-28.4 34.8-18.6 0-28.6-15.2-28.6-34.8 0-19.8 10-35 28.6-35zm58.71 13.4c0 15.2 9.6 24.2 27.6 27.6l21.4 4.2c9.6 1.8 14.8 5.6 14.8 12 0 7.6-6.2 13.6-21.6 13.6-15.4 0-23.2-7.2-24-17.4h-20.8c.4 20 16.8 32.6 44 32.6 26.8 0 42.2-12.2 42.2-30.2 0-15.2-9.6-24.2-27.6-27.6l-21.2-4.2c-9.6-2-14.8-5.4-14.8-12 0-7.6 7.8-13 20-13 12.8 0 21 5.8 21.6 15.6h20.2c-.4-21-20-31-41.4-31-23.6 0-40.4 11.6-40.4 29.8zM2377.4 182h21.4V43.2h-21.4V182zm44.05 0h21.4v-56.6h36.6l34 56.6h24.2l-36-60c18.2-5 29.8-18 29.8-38.2 0-26.4-17.6-40.6-49.4-40.6h-60.6V182zm21.4-74.6V61.2h37.2c18.2 0 29.2 6.2 29.2 23.2 0 16.8-11 23-29.2 23h-37.2zm125.62 74.6v-54.2c0-16.4 9.2-29.6 25.6-29.6 13 0 21.4 7 21.4 26.2V182h20v-62.6c0-23.4-12.2-38-34.8-38-15.4 0-26.2 6.6-33.2 16.6V83.4h-19.2V182h20.2zm127.21 1.8c29.4 0 49.6-19.2 49.6-51s-20.2-51.4-49.6-51.4c-29.2 0-49.4 19.6-49.4 51.4 0 31.8 20.2 51 49.4 51zm0-16.2c-18.4 0-28.4-15.2-28.4-34.8 0-19.8 10-35 28.4-35 18.6 0 28.6 15.2 28.6 35 0 19.6-10 34.8-28.6 34.8zm97.84-5.6l-27.8-78.6h-21.4l36.8 98.6h24.2l36.8-98.6h-21l-27.6 78.6zm137.29 20v-65c0-24.6-16.2-35.6-42.6-35.6-23 0-41.2 10-42.2 31.2h20.4c.8-10.2 8.4-15.6 21.8-15.6s23 5 23 18v4.2l-36.8 6.2c-18 3.2-31.8 12.4-31.8 30 0 18.8 15.4 28.4 33.4 28.4 14.6 0 28.6-5 36.4-17.2V182h18.4zm-50.4-13.8c-11.6 0-18-5.2-18-13 0-8.8 5.6-13.6 17.8-15.8l31-5.2v6.2c0 19-15.4 27.8-30.8 27.8zM3496.4 182h94.2v-19.4h-72.8V43.2h-21.4V182zm142.72 10.6l41.4-109.2h-21l-27.8 78.6-27.8-78.6h-21.4l38.6 102.4-1 2.6c-3 8.6-9 12.6-19 12.6-3.8 0-7.8-.4-11.4-1v17.2c4 .8 8.8 1 13.2 1 17.4 0 28.8-6.6 36.2-25.6zm44.3-81.4c0 15.2 9.6 24.2 27.6 27.6l21.4 4.2c9.6 1.8 14.8 5.6 14.8 12 0 7.6-6.2 13.6-21.6 13.6-15.4 0-23.2-7.2-24-17.4h-20.8c.4 20 16.8 32.6 44 32.6 26.8 0 42.2-12.2 42.2-30.2 0-15.2-9.6-24.2-27.6-27.6l-21.2-4.2c-9.6-2-14.8-5.4-14.8-12 0-7.6 7.8-13 20-13 12.8 0 21 5.8 21.6 15.6h20.2c-.4-21-20-31-41.4-31-23.6 0-40.4 11.6-40.4 29.8zm179.45 70.8v-65c0-24.6-16.2-35.6-42.6-35.6-23 0-41.2 10-42.2 31.2h20.4c.8-10.2 8.4-15.6 21.8-15.6s23 5 23 18v4.2l-36.8 6.2c-18 3.2-31.8 12.4-31.8 30 0 18.8 15.4 28.4 33.4 28.4 14.6 0 28.6-5 36.4-17.2V182h18.4zm-50.4-13.8c-11.6 0-18-5.2-18-13 0-8.8 5.6-13.6 17.8-15.8l31-5.2v6.2c0 19-15.4 27.8-30.8 27.8zM3994.4 62.6h47.8V182h21.4V62.6h48V43.2h-117.2v19.4zm125.53 20.8V182h20.2V83.4h-20.2zm-1.6-17h23.4V46.2h-23.4v20.2zm60.19 115.6v-54.2c0-16.4 9.2-29.6 25.6-29.6 13 0 21.4 7 21.4 26.2V182h20v-62.6c0-23.4-12.2-38-34.8-38-15.4 0-26.2 6.6-33.2 16.6V83.4h-19.2V182h20.2zm133.81-59.2l40.6-39.4h-25.6l-44.6 43.2V43.2h-20.2V182h20.2v-32.4l14.2-14 33.2 46.4h24.2l-42-59.2zM4548.2 180.2c34 0 55-16.4 55-40.6 0-20.2-12.4-32.6-32.6-37l-36.4-8.4c-13.6-3-18.6-9.8-18.6-18.6 0-12.4 12.4-21 30.4-21 17.4 0 30.4 7.6 31.8 24.8h22.2c-.2-27.4-24-42.4-54.2-42.4-29.6 0-51.4 15.8-51.4 39.4 0 20.4 12.4 32.4 32.4 37l36.4 8.4c13.8 3.2 18.8 9.8 18.8 18.6 0 13.2-13.2 22.2-33.2 22.2-20.4 0-35-10.2-36.2-27h-22.2c1 28.8 23 44.6 57.8 44.6zm58.62-83.8h15.8v52.4c0 19.8 9.8 30.6 28.4 30.6 6 0 12.8-.6 18.8-2v-17.2c-4.4 1-9.2 1.6-13.6 1.6-10 0-13.6-6-13.6-17.4v-48h27.2v-17h-27.2V53.8h-19.6v25.6h-16.2v17zm156.57 81.6v-65c0-24.6-16.2-35.6-42.6-35.6-23 0-41.2 10-42.2 31.2h20.4c.8-10.2 8.4-15.6 21.8-15.6s23 5 23 18v4.2l-36.8 6.2c-18 3.2-31.8 12.4-31.8 30 0 18.8 15.4 28.4 33.4 28.4 14.6 0 28.6-5 36.4-17.2V178h18.4zm-50.4-13.8c-11.6 0-18-5.2-18-13 0-8.8 5.6-13.6 17.8-15.8l31-5.2v6.2c0 19-15.4 27.8-30.8 27.8zm119.92-86.8c-13.4 0-24.8 5-32.4 15.4V39.2h-20.2V178h19.2v-14c7.4 10.4 19 15.8 33.6 15.8 24 0 44-18.4 44-51 0-32.8-19.8-51.4-44.2-51.4zm-5.2 16.4c18.4 0 28.4 15.2 28.4 35 0 19.6-10 34.8-28.4 34.8-18.6 0-28.6-15.2-28.6-34.8 0-19.8 10-35 28.6-35zm55.11 34.8c0 32.6 21 51.2 48.6 51.2 23 0 41.6-11 46-32.6h-20.8c-3.2 11-13.2 16.8-25.4 16.8-17.2 0-27.2-14-27.8-29.2h75.6V128c0-32.8-19-50.6-47.4-50.6-29 0-48.8 20.2-48.8 51.2zm20.8-8.6c2.2-16.2 13-27 28.4-27 14.6 0 25.8 10.2 26.6 27h-55zm88.04-80.8V178h20.2V39.2h-20.2zm81.59 140.6c29.4 0 49.6-19.2 49.6-51s-20.2-51.4-49.6-51.4c-29.2 0-49.4 19.6-49.4 51.4 0 31.8 20.2 51 49.4 51zm0-16.2c-18.4 0-28.4-15.2-28.4-34.8 0-19.8 10-35 28.4-35 18.6 0 28.6 15.2 28.6 35 0 19.6-10 34.8-28.6 34.8zM5324.4 178h22.8L5390 62.6V178h20.6V39.2h-31.4L5336 155.6l-43.2-116.4h-31.6V178h20.6V62.6l42.6 115.4zm149.39 1.8c29.4 0 49.6-19.2 49.6-51s-20.2-51.4-49.6-51.4c-29.2 0-49.4 19.6-49.4 51.4 0 31.8 20.2 51 49.4 51zm0-16.2c-18.4 0-28.4-15.2-28.4-34.8 0-19.8 10-35 28.4-35 18.6 0 28.6 15.2 28.6 35 0 19.6-10 34.8-28.6 34.8zm81.61 14.4v-54.2c0-16.4 9.2-29.6 25.6-29.6 13 0 21.4 7 21.4 26.2V178h20v-62.6c0-23.4-12.2-38-34.8-38-15.4 0-26.2 6.6-33.2 16.6V79.4h-19.2V178h20.2zm74.41-81.6h15.8v52.4c0 19.8 9.8 30.6 28.4 30.6 6 0 12.8-.6 18.8-2v-17.2c-4.4 1-9.2 1.6-13.6 1.6-10 0-13.6-6-13.6-17.4v-48h27.2v-17h-27.2V53.8h-19.6v25.6h-16.2v17zm115.99 83.4c29.4 0 49.6-19.2 49.6-51s-20.2-51.4-49.6-51.4c-29.2 0-49.4 19.6-49.4 51.4 0 31.8 20.2 51 49.4 51zm0-16.2c-18.4 0-28.4-15.2-28.4-34.8 0-19.8 10-35 28.4-35 18.6 0 28.6 15.2 28.6 35 0 19.6-10 34.8-28.6 34.8zM5934.4 178h94.2v-19.4h-72.8V39.2h-21.4V178zm186.95 0v-65c0-24.6-16.2-35.6-42.6-35.6-23 0-41.2 10-42.2 31.2h20.4c.8-10.2 8.4-15.6 21.8-15.6s23 5 23 18v4.2l-36.8 6.2c-18 3.2-31.8 12.4-31.8 30 0 18.8 15.4 28.4 33.4 28.4 14.6 0 28.6-5 36.4-17.2V178h18.4zm-50.4-13.8c-11.6 0-18-5.2-18-13 0-8.8 5.6-13.6 17.8-15.8l31-5.2v6.2c0 19-15.4 27.8-30.8 27.8zm64.72-57c0 15.2 9.6 24.2 27.6 27.6l21.4 4.2c9.6 1.8 14.8 5.6 14.8 12 0 7.6-6.2 13.6-21.6 13.6-15.4 0-23.2-7.2-24-17.4h-20.8c.4 20 16.8 32.6 44 32.6 26.8 0 42.2-12.2 42.2-30.2 0-15.2-9.6-24.2-27.6-27.6l-21.2-4.2c-9.6-2-14.8-5.4-14.8-12 0-7.6 7.8-13 20-13 12.8 0 21 5.8 21.6 15.6h20.2c-.4-21-20-31-41.4-31-23.6 0-40.4 11.6-40.4 29.8zm94.06 0c0 15.2 9.6 24.2 27.6 27.6l21.4 4.2c9.6 1.8 14.8 5.6 14.8 12 0 7.6-6.2 13.6-21.6 13.6-15.4 0-23.2-7.2-24-17.4h-20.8c.4 20 16.8 32.6 44 32.6 26.8 0 42.2-12.2 42.2-30.2 0-15.2-9.6-24.2-27.6-27.6l-21.2-4.2c-9.6-2-14.8-5.4-14.8-12 0-7.6 7.8-13 20-13 12.8 0 21 5.8 21.6 15.6h20.2c-.4-21-20-31-41.4-31-23.6 0-40.4 11.6-40.4 29.8zm96.65-27.8V178h20.2V79.4h-20.2zm-1.6-17h23.4V42.2h-23.4v20.2zm33.79 66.2c0 32.6 21 51.2 48.6 51.2 23 0 41.6-11 46-32.6h-20.8c-3.2 11-13.2 16.8-25.4 16.8-17.2 0-27.2-14-27.8-29.2h75.6V128c0-32.8-19-50.6-47.4-50.6-29 0-48.8 20.2-48.8 51.2zm20.8-8.6c2.2-16.2 13-27 28.4-27 14.6 0 25.8 10.2 26.6 27h-55zM6943.4 178h101.2v-19h-79.8v-42.8h71.4V97.8h-71.4V58h78.6V39.2h-100V178zm152.32-20l-27.8-78.6h-21.4l36.8 98.6h24.2l36.8-98.6h-21l-27.6 78.6zM7233 178v-65c0-24.6-16.2-35.6-42.6-35.6-23 0-41.2 10-42.2 31.2h20.4c.8-10.2 8.4-15.6 21.8-15.6s23 5 23 18v4.2l-36.8 6.2c-18 3.2-31.8 12.4-31.8 30 0 18.8 15.4 28.4 33.4 28.4 14.6 0 28.6-5 36.4-17.2V178h18.4zm-50.4-13.8c-11.6 0-18-5.2-18-13 0-8.8 5.6-13.6 17.8-15.8l31-5.2v6.2c0 19-15.4 27.8-30.8 27.8zm214.12-48.8c0-26.8-14.8-38-34.4-38-15.8 0-25.8 7-33 17.2-5.4-11.2-15.8-17.2-29.8-17.2-14.8 0-24.8 7.8-30.4 16.6V79.4h-19.2V178h20.2v-54.4c0-18.4 10.4-29.2 22.8-29.2 14 0 20.6 8 20.6 25.2V178h19.8v-57c0-17.6 11.4-26.6 23-26.6 13.6 0 20.6 8 20.6 24.2V178h19.8v-62.6zM7540.4 178h21.4v-56.6h36.6l34 56.6h24.2l-36-60c18.2-5 29.8-18 29.8-38.2 0-26.4-17.6-40.6-49.4-40.6h-60.6V178zm21.4-74.6V57.2h37.2c18.2 0 29.2 6.2 29.2 23.2 0 16.8-11 23-29.2 23h-37.2zm142.05 76.4c13.4 0 24.6-4.8 32.4-15.2V213h20V79.4h-19.2v14c-7.2-10.4-19-16-33.6-16-24 0-44 18.6-44 51.2 0 32.8 19.8 51.2 44.4 51.2zm5.2-16.2c-18.6 0-28.6-15.2-28.6-35 0-19.6 10-34.8 28.6-34.8 18.4 0 28.4 15.2 28.4 34.8 0 19.8-10 35-28.4 35zm55.51-67.2h15.8v52.4c0 19.8 9.8 30.6 28.4 30.6 6 0 12.8-.6 18.8-2v-17.2c-4.4 1-9.2 1.6-13.6 1.6-10 0-13.6-6-13.6-17.4v-48h27.2v-17h-27.2V53.8h-19.6v25.6h-16.2v17zM8028.4 178h22.8L8094 62.6V178h20.6V39.2h-31.4L8040 155.6l-43.2-116.4h-31.6V178h20.6V62.6l42.6 115.4zm99.99-49.4c0 32.6 21 51.2 48.6 51.2 23 0 41.6-11 46-32.6h-20.8c-3.2 11-13.2 16.8-25.4 16.8-17.2 0-27.2-14-27.8-29.2h75.6V128c0-32.8-19-50.6-47.4-50.6-29 0-48.8 20.2-48.8 51.2zm20.8-8.6c2.2-16.2 13-27 28.4-27 14.6 0 25.8 10.2 26.6 27h-55zm126.45-42.6c-24.6 0-44.4 18.6-44.4 51.4 0 32.6 20 51 44 51 14.6 0 26.4-5.4 33.6-15.8v14h19.2V39.2h-20v53.6c-7.8-10.4-19-15.4-32.4-15.4zm5.2 16.4c18.4 0 28.4 15.2 28.4 35 0 19.6-10 34.8-28.4 34.8-18.6 0-28.6-15.2-28.6-34.8 0-19.8 10-35 28.6-35zm108.31 86c29.4 0 49.6-19.2 49.6-51s-20.2-51.4-49.6-51.4c-29.2 0-49.4 19.6-49.4 51.4 0 31.8 20.2 51 49.4 51zm0-16.2c-18.4 0-28.4-15.2-28.4-34.8 0-19.8 10-35 28.4-35 18.6 0 28.6 15.2 28.6 35 0 19.6-10 34.8-28.6 34.8zm208.2-48.2c0-26.8-14.8-38-34.4-38-15.8 0-25.8 7-33 17.2-5.4-11.2-15.8-17.2-29.8-17.2-14.8 0-24.8 7.8-30.4 16.6V79.4h-19.2V178h20.2v-54.4c0-18.4 10.4-29.2 22.8-29.2 14 0 20.6 8 20.6 25.2V178h19.8v-57c0-17.6 11.4-26.6 23-26.6 13.6 0 20.6 8 20.6 24.2V178h19.8v-62.6zm99.78 62.6v-65c0-24.6-16.2-35.6-42.6-35.6-23 0-41.2 10-42.2 31.2h20.4c.8-10.2 8.4-15.6 21.8-15.6s23 5 23 18v4.2l-36.8 6.2c-18 3.2-31.8 12.4-31.8 30 0 18.8 15.4 28.4 33.4 28.4 14.6 0 28.6-5 36.4-17.2V178h18.4zm-50.4-13.8c-11.6 0-18-5.2-18-13 0-8.8 5.6-13.6 17.8-15.8l31-5.2v6.2c0 19-15.4 27.8-30.8 27.8z" fill="#000"/><rect x="1311" y="106.059" width="32" height="32" rx="16" fill="#000"/><rect x="596" y="106.059" width="32" height="32" rx="16" fill="#000"/><rect x="2288" y="106.059" width="32" height="32" rx="16" fill="#000"/><rect x="2985" y="106.059" width="32" height="32" rx="16" fill="#000"/><rect x="3407" y="106.059" width="32" height="32" rx="16" fill="#000"/><rect x="3917" y="106.059" width="32" height="32" rx="16" fill="#000"/><rect x="4398" y="106.059" width="32" height="32" rx="16" fill="#000"/><rect x="5845" y="106.059" width="32" height="32" rx="16" fill="#000"/><rect x="6505" y="106.059" width="32" height="32" rx="16" fill="#000"/><rect x="6854" y="106.059" width="32" height="32" rx="16" fill="#000"/><rect x="7451" y="106.059" width="32" height="32" rx="16" fill="#000"/><rect x="7876" y="106.059" width="32" height="32" rx="16" fill="#000"/><rect x="8752" y="106.059" width="32" height="32" rx="16" fill="#000"/><rect x="5172" y="102" width="32" height="32" rx="16" fill="#000"/><path d="M522.076 90.244v-5.76h26.969v90.079h-26.969v-5.752a47.524 47.524 0 01-48.974 2.736 47.527 47.527 0 1148.974-81.296v-.007zm-24.527 62.461c13.495 0 24.439-10.383 24.439-23.178 0-12.802-10.944-23.177-24.439-23.177s-24.438 10.375-24.438 23.177c0 12.795 10.943 23.171 24.438 23.171v.007zm-97.666-70.647c-10.767 0-20.965 3.348-27.787 12.574V84.485h-26.85v90.078h27.182v-47.344c0-13.694 9.189-20.397 20.25-20.397 11.851 0 18.657 7.079 18.657 20.213v47.528h26.946v-57.285c0-20.965-16.666-35.22-38.398-35.22zm-93.64 14.16V84.484h-27.617v90.078h27.676v-42.056c0-14.189 15.383-21.821 26.054-21.821l.317.015V84.492c-10.951 0-21.024 4.69-26.43 11.725zm-68.692-5.974v-5.76h26.968v90.079h-26.968v-5.752a47.528 47.528 0 110-78.56v-.007zm-24.527 62.461c13.495 0 24.438-10.383 24.438-23.178 0-12.802-10.943-23.177-24.438-23.177s-24.439 10.375-24.439 23.177c0 12.795 10.944 23.171 24.439 23.171v.007zM124 174.563h28.229V44.339H124v130.224zM104.547 44.316H75.292c0 23.974-11.017 45.98-30.235 60.374l-11.592 8.68 44.91 61.23h36.916l-41.319-56.341c19.587-19.498 30.575-45.736 30.575-73.943zM0 174.6h29.888V44.316H0V174.6zM8945.82 68.143l-24.15 18.033c-11.4-9.81-26.13-11.733-34.21-11.733-8.07 0-16.8 2.343-18.08 8.233-1.29 5.712 4.03 10.156 13.14 12.63 10.4 2.8 19.88 5.282 34.47 9.445 21.69 6.189 36.52 15.579 36.52 37.337 0 30-26.63 45.55-62.3 45.55-35.68 0-59.99-18.584-67.21-27.255l25.53-19.089c17.93 15.635 30.4 17.838 40.83 17.838 11.95 0 23.14-2.567 24.57-9.334 1.17-5.433-3.34-9.755-13.52-12.135-11.53-2.66-21.26-4.797-32.11-7.654-29.42-7.719-37.72-24.828-37.72-40.192 0-21.16 19.69-42.89 55.71-42.89 36.94 0 58.57 21.16 58.57 21.16l-.04.056zm153.96-19.098h-107.69v134.607h109.63v-31.026h-71.82v-21.674h49.47V101.27h-49.47V79.801h69.85l.03-30.756zm-135.55 165.662h8.4V18h-8.4v196.707zm151.63 0h8.4V18h-8.4v196.707zm27.81-31.055h86.48c23.12 0 41.85-13.935 41.85-36.253 0-17.408-11.4-28.936-27.37-34.042a9.003 9.003 0 00-1.55-.196 9.59 9.59 0 001.55-.27c9.15-3.622 19.29-13.264 19.29-29.683 0-20.824-18.43-34.107-41.17-34.107h-79.08v134.551zm37.99-106.567h30.21c6.95 0 12.58 5.488 12.58 11.798s-5.6 11.817-12.58 11.817h-30.21V77.085zm36.95 76.661h-36.95v-24.539h36.95a12.28 12.28 0 018.37 3.756 12.265 12.265 0 013.42 8.509 12.264 12.264 0 01-11.79 12.265v.009zM6690.4 121.5h27.4v-9.1h-3c0 3.5-2.6 6.1-6.5 6.1h-4.2v-13.7h4.5v-3h-18.3v3h4.6v13.7h-4.6v3h.1zM6730.9 121.5h10.7l9.1-16.7h4.5v-3h-13.6v3h3.9l-6.6 12.2-6.7-12.2h4.8v-3h-19.8v3h4.5l9.2 16.7zM6635.8 101.8H6616v3h4.5l9.2 16.7h10.7l9-16.7h4.6v-3h-13.7v3h4l-6.6 12.2-6.7-12.2h4.8v-3zM6656.6 111.7c0 5.8 4.7 10.5 14.1 10.5 9.4 0 14-4.6 14-10.5 0-5.7-4.9-10.3-14.1-10.3-9.1-.1-14 4.5-14 10.3zm19 0c-.1 3.6-1.5 7.3-5 7.3-3.3-.1-4.8-3.8-4.8-7.4.1-3.8 1.9-7.1 5-7.1 3.2 0 4.8 3.4 4.8 7.2zM6757.8 111.7c0 5.8 4.7 10.5 14.1 10.5 9.4 0 14-4.6 14-10.5 0-5.7-4.9-10.3-14.1-10.3-9.1-.1-14 4.5-14 10.3zm14.2-7.2c3.1.1 4.8 3.4 4.7 7.2-.1 3.6-1.5 7.3-5 7.3-3.4-.1-4.8-3.8-4.8-7.4.2-3.9 2-7.2 5.1-7.1z" fill="#000"/><path d="M6793.9 48.8l-11.5 11.5c9.8 15.2 15.5 33.3 15.5 52.7 0 53.6-43.4 97-97 97s-97-43.4-97-97 43.4-97 97-97c19.5 0 37.6 5.7 52.8 15.6l11.5-11.5C6747 7.4 6724.8 0 6700.9 0 6638.5 0 6588 50.6 6588 112.9c0 62.3 50.6 112.9 112.9 112.9 62.3 0 113-50.5 113-112.8 0-23.9-7.4-46-20-64.2z" fill="#000"/><path d="M6757.8 4.5v3.2c6.9 3.7 13.3 8.1 19.3 13l-16.2 16.1c6.1 4.8 11.6 10.2 16.3 16.3l16.1-16.1c4.9 6 9.3 12.4 13 19.2h3.1V4.5h-51.6zM3210.25 142.906l-33.1-88.63h-28.87l47.48 127.445h28.88l47.49-127.444h-28.88l-33 88.629zM3120.35 109.59c-2.54-1.164-13.11-5.817-15.12-6.663-9.73-4.231-14.49-8.885-14.49-14.384 0-5.712 4.44-11.317 13.64-11.317 6.45 0 12.27 3.067 17.98 9.201l20.1-14.595c-8.04-12.268-22.85-19.883-38.82-19.883-21.05 0-39.66 13.643-39.66 36.488 0 15.864 8.99 28.239 27.5 36.065 5.39 2.327 9.2 3.913 13.43 5.711 6.13 2.644 15.97 6.663 15.97 15.442 0 8.672-8.67 13.22-17.98 13.22-8.35 0-17.24-5.288-24.85-14.912L3057 159.298c8.14 12.163 24.64 24.96 46.75 24.96 24.85 0 44.21-15.23 44.21-38.92 0-15.548-8.99-27.287-27.61-35.748zM3325.96 158.348c-6.14 0-11.32-3.702-14.07-8.99-2.12-4.019-2.12-10.365-2.12-15.759V80.718h29.41l9.83-26.336h-39.34V18h-26.97v119.724c0 5.5.32 10.576 2.43 17.239 5.82 17.028 21.79 29.191 40.83 29.191 10.89 0 21.99-4.231 30.24-11.846l-16.92-19.354c-3.59 3.173-8.46 5.394-13.32 5.394zM685.4 182h21.4v-62.4h73.8V182h21.2V43.2h-21.2v57.2h-73.8V43.2h-21.4V182zm130.767-49.4c0 32.6 21 51.2 48.6 51.2 23 0 41.6-11 46-32.6h-20.8c-3.2 11-13.2 16.8-25.4 16.8-17.2 0-27.2-14-27.8-29.2h75.6V132c0-32.8-19-50.6-47.4-50.6-29 0-48.8 20.2-48.8 51.2zm20.8-8.6c2.2-16.2 13-27 28.4-27 14.6 0 25.8 10.2 26.6 27h-55zm126.449-42.6c-24.6 0-44.4 18.6-44.4 51.4 0 32.6 20 51 44 51 14.6 0 26.4-5.4 33.6-15.8v14h19.204V43.2h-20.004v53.6c-7.8-10.4-19-15.4-32.4-15.4zm5.2 16.4c18.4 0 28.4 15.2 28.4 35 0 19.6-10 34.8-28.4 34.8-18.6 0-28.6-15.2-28.6-34.8 0-19.8 10-35 28.6-35zM1071.92 162l-27.8-78.6h-21.4l36.8 98.6h24.2l36.8-98.6h-21l-27.6 78.6zm55.66-78.6V182h20.2V83.4h-20.2zm-1.6-17h23.4V46.2h-23.4v20.2zm129.39 17h-19.2v13.2c-7-9.6-18-15.2-31.8-15.2-23.6 0-44.4 17.6-44.4 49.2 0 31 21.2 48.4 45 48.4 12.2 0 23-4.8 30.4-13.8v12.6c0 19-11.6 25.8-27.2 25.8-15 0-23.8-5-25-15.8h-20.4c.8 18.6 15.4 31.4 45.6 31.4 27.8 0 47-14.4 47-43V83.4zm-74.4 46.8c0-18.4 9.6-32.6 27.6-32.6 18.4 0 28 14.2 28 32.6 0 18.6-9.6 32.6-28 32.6-18 0-27.6-14-27.6-32.6z" fill="#000"/></svg>