<svg width="9345" height="212" viewBox="0 0 9345 212" fill="none" xmlns="http://www.w3.org/2000/svg"><rect x="1404" y="88.172" width="32" height="32.063" rx="16" fill="#000"/><rect x="2076" y="88.172" width="32" height="32.063" rx="16" fill="#000"/><rect x="3013" y="88.172" width="32" height="32.063" rx="16" fill="#000"/><rect x="3760" y="88.172" width="32" height="32.063" rx="16" fill="#000"/><rect x="4284" y="88.172" width="32" height="32.063" rx="16" fill="#000"/><rect x="5461" y="88.172" width="32" height="32.063" rx="16" fill="#000"/><rect x="7982" y="88.172" width="32" height="32.063" rx="16" fill="#000"/><rect x="8757" y="88.172" width="32" height="32.063" rx="16" fill="#000"/><rect x="6170" y="88.172" width="32" height="32.063" rx="16" fill="#000"/><rect x="6845" y="88.172" width="32" height="32.063" rx="16" fill="#000"/><rect x="7317" y="88.172" width="32" height="32.063" rx="16" fill="#000"/><path d="M17.4 164h101.2v-19H38.8v-42.8h71.4V83.8H38.8V44h78.6V25.2h-100V164zm168.083 1.8c24.4 0 44.2-18.4 44.2-51.2 0-32.6-20-51.2-44-51.2-14.6 0-26.2 5.6-33.6 16v-14h-19.2V199h20.2v-48.4c7.6 10.4 19 15.2 32.4 15.2zm-5.2-16.2c-18.6 0-28.6-15.2-28.6-35 0-19.6 10-34.8 28.6-34.8 18.4 0 28.4 15.2 28.4 34.8 0 19.8-10 35-28.4 35zm61.303-84.2V164h20.2V65.4h-20.2zm-1.6-17h23.4V28.2h-23.4v20.2zm78.391 15c-24.6 0-44.4 18.6-44.4 51.4 0 32.6 20 51 44 51 14.6 0 26.4-5.4 33.6-15.8v14h19.2V25.2h-20v53.6c-7.8-10.4-19-15.4-32.4-15.4zm5.2 16.4c18.4 0 28.4 15.2 28.4 35 0 19.6-10 34.8-28.4 34.8-18.6 0-28.6-15.2-28.6-34.8 0-19.8 10-35 28.6-35zm58.903 34.8c0 32.6 21 51.2 48.6 51.2 23 0 41.6-11 46-32.6h-20.8c-3.2 11-13.2 16.8-25.4 16.8-17.2 0-27.2-14-27.8-29.2h75.6V114c0-32.8-19-50.6-47.4-50.6-29 0-48.8 20.2-48.8 51.2zm20.8-8.6c2.2-16.2 13-27 28.4-27 14.6 0 25.8 10.2 26.6 27h-55zm234.848-4.6c0-26.8-14.8-38-34.4-38-15.8 0-25.8 7-33 17.2-5.4-11.2-15.8-17.2-29.8-17.2-14.8 0-24.8 7.8-30.4 16.6V65.4h-19.2V164h20.2v-54.4c0-18.4 10.4-29.2 22.8-29.2 14 0 20.6 8 20.6 25.2V164h19.8v-57c0-17.6 11.4-26.6 23-26.6 13.6 0 20.6 8 20.6 24.2V164h19.8v-62.6zm16.981-36V164h20.2V65.4h-20.2zm-1.6-17h23.4V28.2h-23.4v20.2zm54.791 66.2c0-20.4 10.4-34.8 28.4-34.8 12.4 0 22.6 7.4 24.2 20.2h20.8c-2.4-22.6-20.2-36.6-45-36.6-29.2 0-49.4 19.4-49.4 51.2 0 31.8 20.2 51.2 49.4 51.2 24.8 0 42.6-13.8 45-36.4h-20.8c-1.6 12.6-11.8 20.2-24.2 20.2-18 0-28.4-14.6-28.4-35zm169.455 51.6c34 0 55-16.4 55-40.6 0-20.2-12.4-32.6-32.6-37l-36.4-8.4c-13.6-3-18.6-9.8-18.6-18.6 0-12.4 12.4-21 30.4-21 17.4 0 30.4 7.6 31.8 24.8h22.2c-.2-27.4-24-42.4-54.2-42.4-29.6 0-51.4 15.8-51.4 39.4 0 20.4 12.4 32.4 32.4 37l36.4 8.4c13.8 3.2 18.8 9.8 18.8 18.6 0 13.2-13.2 22.2-33.2 22.2-20.4 0-35-10.2-36.2-27h-22.2c1 28.8 23 44.6 57.8 44.6zm112.008-.4c29.397 0 49.597-19.2 49.597-51s-20.2-51.4-49.597-51.4c-29.2 0-49.4 19.6-49.4 51.4 0 31.8 20.2 51 49.4 51zm0-16.2c-18.4 0-28.4-15.2-28.4-34.8 0-19.8 10-35 28.4-35 18.597 0 28.597 15.2 28.597 35 0 19.6-10 34.8-28.597 34.8zm125.997-84.2v54c0 16.4-9.2 29.8-24.8 29.8-12.6 0-20.8-7.4-20.8-26.4V65.4h-20V128c0 23.2 12 37.8 34.2 37.8 15 0 25.6-6.4 32.2-16.6V164h19.2V65.4h-20zm58.45 98.6v-54.2c0-16.4 9.2-29.6 25.6-29.6 13 0 21.4 7 21.4 26.2V164h20v-62.6c0-23.4-12.2-38-34.8-38-15.4 0-26.2 6.6-33.2 16.6V65.4h-19.2V164h20.2zm122.41-100.6c-24.6 0-44.4 18.6-44.4 51.4 0 32.6 20 51 44 51 14.6 0 26.4-5.4 33.6-15.8v14h19.2V25.2h-20v53.6c-7.8-10.4-19-15.4-32.4-15.4zm5.2 16.4c18.4 0 28.4 15.2 28.4 35 0 19.6-10 34.8-28.4 34.8-18.6 0-28.6-15.2-28.6-34.8 0-19.8 10-35 28.6-35zM1593.8 164h22.6l-54.6-138.8h-26.6L1480.8 164h22l14-35.6h63.2l13.8 35.6zm-45.4-119.8l25.2 66h-50.4l25.2-66zm95.92 119.8v-54.2c0-16.4 9.2-29.6 25.6-29.6 13 0 21.4 7 21.4 26.2V164h20v-62.6c0-23.4-12.2-38-34.8-38-15.4 0-26.2 6.6-33.2 16.6V65.4h-19.2V164h20.2zm128.83 10.6l41.4-109.2h-21l-27.8 78.6-27.8-78.6h-21.4l38.6 102.4-1 2.6c-3 8.6-9 12.6-19 12.6-3.8 0-7.8-.4-11.4-1v17.2c4 .8 8.8 1 13.2 1 17.4 0 28.8-6.6 36.2-25.6zm122.27-109.2V164h20.2V65.4h-20.2zm-1.6-17h23.4V28.2h-23.4v20.2zm-18.6-23.6c-4.2-1-10.2-1.4-14.8-1.4-20.2 0-32.6 10.8-32.6 32.2v9.8h-15.8v17h15.8V164h20V82.4h27.4v-17h-27.4V57c0-11.8 5.2-16.4 15.6-16.4 3.8 0 9.4.6 11.8 1.2v-17zm78.8 139.2v-54.2c0-16.4 9.2-29.6 25.6-29.6 13 0 21.4 7 21.4 26.2V164h20v-62.6c0-23.4-12.2-38-34.8-38-15.4 0-26.2 6.6-33.2 16.6V65.4h-19.2V164h20.2zM2225.2 109.2h40.2c-1.6 26.2-22 38.8-42.8 38.8-26.2 0-44.6-21.4-44.6-53.4 0-31.2 18.2-53.2 45.2-53.2 18.4 0 35.4 11.2 39 30.6h22.6c-4.6-31.6-30.6-49-62-49-40.8 0-67.4 29-67.4 71.6 0 41.4 25.4 71.6 64 71.6 22.8 0 38-9.2 47.2-24V164h19V91h-60.4v18.2zm162.07 54.8V99c0-24.6-16.2-35.6-42.6-35.6-23 0-41.2 10-42.2 31.2h20.4c.8-10.2 8.4-15.6 21.8-15.6s23 5 23 18v4.2l-36.8 6.2c-18 3.2-31.8 12.4-31.8 30 0 18.8 15.4 28.4 33.4 28.4 14.6 0 28.6-5 36.4-17.2V164h18.4zm-50.4-13.8c-11.6 0-18-5.2-18-13 0-8.8 5.6-13.6 17.8-15.8l31-5.2v6.2c0 19-15.4 27.8-30.8 27.8zM2322.47 35c0 11.8 9.8 21.2 22 21.2s22.2-9.4 22.2-21.2c0-11.8-10-21.2-22.2-21.2s-22 9.4-22 21.2zm11.6 0c0-6.2 4.4-11 10.4-11s10.6 4.8 10.6 11-4.6 10.6-10.6 10.6-10.4-4.4-10.4-10.6zm127.32 28.8c-2.6-.2-4.2-.2-5.4-.2-13.8 0-26.2 6.2-32.6 21V65.4h-19.2V164h20.2v-51.6c0-18.4 11.8-28.8 27.4-28.8 3 0 6.2 0 9.6.2v-20zm44.78-.4c-24.6 0-44.4 18.6-44.4 51.4 0 32.6 20 51 44 51 14.6 0 26.4-5.4 33.6-15.8v14h19.2V25.2h-20v53.6c-7.8-10.4-19-15.4-32.4-15.4zm5.2 16.4c18.4 0 28.4 15.2 28.4 35 0 19.6-10 34.8-28.4 34.8-18.6 0-28.6-15.2-28.6-34.8 0-19.8 10-35 28.6-35zm62.51 13.4c0 15.2 9.6 24.2 27.6 27.6l21.4 4.2c9.6 1.8 14.8 5.6 14.8 12 0 7.6-6.2 13.6-21.6 13.6-15.4 0-23.2-7.2-24-17.4h-20.8c.4 20 16.8 32.6 44 32.6 26.8 0 42.2-12.2 42.2-30.2 0-15.2-9.6-24.2-27.6-27.6l-21.2-4.2c-9.6-2-14.8-5.4-14.8-12 0-7.6 7.8-13 20-13 12.8 0 21 5.8 21.6 15.6h20.2c-.4-21-20-31-41.4-31-23.6 0-40.4 11.6-40.4 29.8zm171.05-27.8V164h20.2V65.4h-20.2zm-1.6-17h23.4V28.2h-23.4v20.2zm-18.6-23.6c-4.2-1-10.2-1.4-14.8-1.4-20.2 0-32.6 10.8-32.6 32.2v9.8h-15.8v17h15.8V164h20V82.4h27.4v-17h-27.4V57c0-11.8 5.2-16.4 15.6-16.4 3.8 0 9.4.6 11.8 1.2v-17zm56.01 68.4c0 15.2 9.6 24.2 27.6 27.6l21.4 4.2c9.6 1.8 14.8 5.6 14.8 12 0 7.6-6.2 13.6-21.6 13.6-15.4 0-23.2-7.2-24-17.4h-20.8c.4 20 16.8 32.6 44 32.6 26.8 0 42.2-12.2 42.2-30.2 0-15.2-9.6-24.2-27.6-27.6l-21.2-4.2c-9.6-2-14.8-5.4-14.8-12 0-7.6 7.8-13 20-13 12.8 0 21 5.8 21.6 15.6h20.2c-.4-21-20-31-41.4-31-23.6 0-40.4 11.6-40.4 29.8zm146.45 11.6l40.6-39.4h-25.6l-44.6 43.2V25.2h-20.2V164h20.2v-32.4l14.2-14 33.2 46.4h24.2l-42-59.2zM3090.4 44.6h47.8V164h21.4V44.6h48V25.2h-117.2v19.4zm98.04 70c0 32.6 21 51.2 48.6 51.2 23 0 41.6-11 46-32.6h-20.8c-3.2 11-13.2 16.8-25.4 16.8-17.2 0-27.2-14-27.8-29.2h75.6V114c0-32.8-19-50.6-47.4-50.6-29 0-48.8 20.2-48.8 51.2zm20.8-8.6c2.2-16.2 13-27 28.4-27 14.6 0 25.8 10.2 26.6 27h-55zm88.05-80.8V164h20.2V25.2h-20.2zM3418.48 164V99c0-24.6-16.2-35.6-42.6-35.6-23 0-41.2 10-42.2 31.2h20.4c.8-10.2 8.4-15.6 21.8-15.6s23 5 23 18v4.2l-36.8 6.2c-18 3.2-31.8 12.4-31.8 30 0 18.8 15.4 28.4 33.4 28.4 14.6 0 28.6-5 36.4-17.2V164h18.4zm-50.4-13.8c-11.6 0-18-5.2-18-13 0-8.8 5.6-13.6 17.8-15.8l31-5.2v6.2c0 19-15.4 27.8-30.8 27.8zm104.74-6.2l-27.8-78.6h-21.4l36.8 98.6h24.2l36.8-98.6h-21l-27.6 78.6zm97.1 21.8c29.4 0 49.6-19.2 49.6-51s-20.2-51.4-49.6-51.4c-29.2 0-49.4 19.6-49.4 51.4 0 31.8 20.2 51 49.4 51zm0-16.2c-18.4 0-28.4-15.2-28.4-34.8 0-19.8 10-35 28.4-35 18.6 0 28.6 15.2 28.6 35 0 19.6-10 34.8-28.6 34.8zm70.88 14.4l25-35.4L3691 164h23.6l-36.4-49.6 35.8-49h-23l-24.6 35-25.2-35h-23.4l36.2 49-36 49.6h22.8zM4483.2 94.6c0-40.4-24.4-69.4-69.6-69.4h-51.4V164h51.4c45.2 0 69.6-28.8 69.6-69.4zm-22.6 0c0 31.2-17.8 50.8-47.6 50.8h-29.4V43.8h29.4c29.8 0 47.6 19.6 47.6 50.8zm28.86 20c0 32.6 21 51.2 48.6 51.2 23 0 41.6-11 46-32.6h-20.8c-3.2 11-13.2 16.8-25.4 16.8-17.2 0-27.2-14-27.8-29.2h75.6V114c0-32.8-19-50.6-47.4-50.6-29 0-48.8 20.2-48.8 51.2zm20.8-8.6c2.2-16.2 13-27 28.4-27 14.6 0 25.8 10.2 26.6 27h-55zm81.84 8.6c0 32.6 21 51.2 48.6 51.2 23 0 41.6-11 46-32.6h-20.8c-3.2 11-13.2 16.8-25.4 16.8-17.2 0-27.2-14-27.8-29.2h75.6V114c0-32.8-19-50.6-47.4-50.6-29 0-48.8 20.2-48.8 51.2zm20.8-8.6c2.2-16.2 13-27 28.4-27 14.6 0 25.8 10.2 26.6 27h-55zm140.65 59.8c24.4 0 44.2-18.4 44.2-51.2 0-32.6-20-51.2-44-51.2-14.6 0-26.2 5.6-33.6 16v-14h-19.2V199h20.2v-48.4c7.6 10.4 19 15.2 32.4 15.2zm-5.2-16.2c-18.6 0-28.6-15.2-28.6-35 0-19.6 10-34.8 28.6-34.8 18.4 0 28.4 15.2 28.4 34.8 0 19.8-10 35-28.4 35zm113.51 16.6c34 0 55-16.4 55-40.6 0-20.2-12.4-32.6-32.6-37l-36.4-8.4c-13.6-3-18.6-9.8-18.6-18.6 0-12.4 12.4-21 30.4-21 17.4 0 30.4 7.6 31.8 24.8h22.2c-.2-27.4-24-42.4-54.2-42.4-29.6 0-51.4 15.8-51.4 39.4 0 20.4 12.4 32.4 32.4 37l36.4 8.4c13.8 3.2 18.8 9.8 18.8 18.6 0 13.2-13.2 22.2-33.2 22.2-20.4 0-35-10.2-36.2-27h-22.2c1 28.8 23 44.6 57.8 44.6zm58.62-83.8h15.8v52.4c0 19.8 9.8 30.6 28.4 30.6 6 0 12.8-.6 18.8-2v-17.2c-4.4 1-9.2 1.6-13.6 1.6-10 0-13.6-6-13.6-17.4v-48h27.2v-17h-27.2V39.8h-19.6v25.6h-16.2v17zm130.97-18.6c-2.6-.2-4.2-.2-5.4-.2-13.8 0-26.2 6.2-32.6 21V65.4h-19.2V164h20.2v-51.6c0-18.4 11.8-28.8 27.4-28.8 3 0 6.2 0 9.6.2v-20zm.19 50.8c0 32.6 21 51.2 48.6 51.2 23 0 41.6-11 46-32.6h-20.8c-3.2 11-13.2 16.8-25.4 16.8-17.2 0-27.2-14-27.8-29.2h75.6V114c0-32.8-19-50.6-47.4-50.6-29 0-48.8 20.2-48.8 51.2zm20.8-8.6c2.2-16.2 13-27 28.4-27 14.6 0 25.8 10.2 26.6 27h-55zm170.84 58V99c0-24.6-16.2-35.6-42.6-35.6-23 0-41.2 10-42.2 31.2h20.4c.8-10.2 8.4-15.6 21.8-15.6s23 5 23 18v4.2l-36.8 6.2c-18 3.2-31.8 12.4-31.8 30 0 18.8 15.4 28.4 33.4 28.4 14.6 0 28.6-5 36.4-17.2V164h18.4zm-50.4-13.8c-11.6 0-18-5.2-18-13 0-8.8 5.6-13.6 17.8-15.8l31-5.2v6.2c0 19-15.4 27.8-30.8 27.8zM5407 101.4c0-26.8-14.8-38-34.4-38-15.8 0-25.8 7-33 17.2-5.4-11.2-15.8-17.2-29.8-17.2-14.8 0-24.8 7.8-30.4 16.6V65.4h-19.2V164h20.2v-54.4c0-18.4 10.4-29.2 22.8-29.2 14 0 20.6 8 20.6 25.2V164h19.8v-57c0-17.6 11.4-26.6 23-26.6 13.6 0 20.6 8 20.6 24.2V164h19.8v-62.6zM5560 25.2h-22.8l50 138.8h27.2L5665 25.2h-22.2L5601 142l-41-116.8zM5747.9 164V99c0-24.6-16.2-35.6-42.6-35.6-23 0-41.2 10-42.2 31.2h20.4c.8-10.2 8.4-15.6 21.8-15.6s23 5 23 18v4.2l-36.8 6.2c-18 3.2-31.8 12.4-31.8 30 0 18.8 15.4 28.4 33.4 28.4 14.6 0 28.6-5 36.4-17.2V164h18.4zm-50.4-13.8c-11.6 0-18-5.2-18-13 0-8.8 5.6-13.6 17.8-15.8l31-5.2v6.2c0 19-15.4 27.8-30.8 27.8zm-22.4-101.8h21V28.2h-21v20.2zm39.2 0h21V28.2h-21v20.2zm107.72 15.4c-2.6-.2-4.2-.2-5.4-.2-13.8 0-26.2 6.2-32.6 21V65.4h-19.2V164h20.2v-51.6c0-18.4 11.8-28.8 27.4-28.8 3 0 6.2 0 9.6.2v-20zm44.79-.4c-24.6 0-44.4 18.6-44.4 51.4 0 32.6 20 51 44 51 14.6 0 26.4-5.4 33.6-15.8v14h19.2V25.2h-20v53.6c-7.8-10.4-19-15.4-32.4-15.4zm5.2 16.4c18.4 0 28.4 15.2 28.4 35 0 19.6-10 34.8-28.4 34.8-18.6 0-28.6-15.2-28.6-34.8 0-19.8 10-35 28.6-35zm58.9 34.8c0 32.6 21 51.2 48.6 51.2 23 0 41.6-11 46-32.6h-20.8c-3.2 11-13.2 16.8-25.4 16.8-17.2 0-27.2-14-27.8-29.2h75.6V114c0-32.8-19-50.6-47.4-50.6-29 0-48.8 20.2-48.8 51.2zm20.8-8.6c2.2-16.2 13-27 28.4-27 14.6 0 25.8 10.2 26.6 27h-55zm98.51 58l25-35.4 25.2 35.4h23.6l-36.4-49.6 35.8-49h-23l-24.6 35-25.2-35h-23.4l36.2 49-36 49.6h22.8zM8086 94.6c0-32.4 19-53.2 44.6-53.2 19.8 0 35.2 12.4 38.8 31.6h22.6c-3.8-31-28.6-50-61.4-50-40.2 0-67.2 28.6-67.2 71.6 0 43 27 71.6 67.2 71.6 32.8 0 57.6-19 61.4-50h-22.6c-3.6 19.2-19 31.6-38.8 31.6-25.6 0-44.6-20.8-44.6-53.2zm201.07 69.4V99c0-24.6-16.2-35.6-42.6-35.6-23 0-41.2 10-42.2 31.2h20.4c.8-10.2 8.4-15.6 21.8-15.6s23 5 23 18v4.2l-36.8 6.2c-18 3.2-31.8 12.4-31.8 30 0 18.8 15.4 28.4 33.4 28.4 14.6 0 28.6-5 36.4-17.2V164h18.4zm-50.4-13.8c-11.6 0-18-5.2-18-13 0-8.8 5.6-13.6 17.8-15.8l31-5.2v6.2c0 19-15.4 27.8-30.8 27.8zm119.91 15.6c24.4 0 44.2-18.4 44.2-51.2 0-32.6-20-51.2-44-51.2-14.6 0-26.2 5.6-33.6 16v-14h-19.2V199h20.2v-48.4c7.6 10.4 19 15.2 32.4 15.2zm-5.2-16.2c-18.6 0-28.6-15.2-28.6-35 0-19.6 10-34.8 28.6-34.8 18.4 0 28.4 15.2 28.4 34.8 0 19.8-10 35-28.4 35zm76.11-35c0-20.4 10.4-34.8 28.4-34.8 12.4 0 22.6 7.4 24.2 20.2h20.8c-2.4-22.6-20.2-36.6-45-36.6-29.2 0-49.4 19.4-49.4 51.2 0 31.8 20.2 51.2 49.4 51.2 24.8 0 42.6-13.8 45-36.4h-20.8c-1.6 12.6-11.8 20.2-24.2 20.2-18 0-28.4-14.6-28.4-35zm85.89-49.2V164h20.2V65.4h-20.2zm-1.6-17h23.4V28.2h-23.4v20.2zm30.39 34h15.8v52.4c0 19.8 9.8 30.6 28.4 30.6 6 0 12.8-.6 18.8-2v-17.2c-4.4 1-9.2 1.6-13.6 1.6-10 0-13.6-6-13.6-17.4v-48h27.2v-17h-27.2V39.8h-19.6v25.6h-16.2v17zm116 83.4c29.4 0 49.6-19.2 49.6-51s-20.2-51.4-49.6-51.4c-29.2 0-49.4 19.6-49.4 51.4 0 31.8 20.2 51 49.4 51zm0-16.2c-18.4 0-28.4-15.2-28.4-34.8 0-19.8 10-35 28.4-35 18.6 0 28.6 15.2 28.6 35 0 19.6-10 34.8-28.6 34.8zM8967.2 94.6c0-40.4-24.4-69.4-69.6-69.4h-51.4V164h51.4c45.2 0 69.6-28.8 69.6-69.4zm-22.6 0c0 31.2-17.8 50.8-47.6 50.8h-29.4V43.8h29.4c29.8 0 47.6 19.6 47.6 50.8zm78.26 71.2c29.4 0 49.6-19.2 49.6-51s-20.2-51.4-49.6-51.4c-29.2 0-49.4 19.6-49.4 51.4 0 31.8 20.2 51 49.4 51zm0-16.2c-18.4 0-28.4-15.2-28.4-34.8 0-19.8 10-35 28.4-35 18.6 0 28.6 15.2 28.6 35 0 19.6-10 34.8-28.6 34.8zm104.6 16.2c29.4 0 49.6-19.2 49.6-51s-20.2-51.4-49.6-51.4c-29.2 0-49.4 19.6-49.4 51.4 0 31.8 20.2 51 49.4 51zm0-16.2c-18.4 0-28.4-15.2-28.4-34.8 0-19.8 10-35 28.4-35 18.6 0 28.6 15.2 28.6 35 0 19.6-10 34.8-28.6 34.8zm118.6-85.8c-2.6-.2-4.2-.2-5.4-.2-13.8 0-26.2 6.2-32.6 21V65.4h-19.2V164h20.2v-51.6c0-18.4 11.8-28.8 27.4-28.8 3 0 6.2 0 9.6.2v-20zm4.96 29.4c0 15.2 9.6 24.2 27.6 27.6l21.4 4.2c9.6 1.8 14.8 5.6 14.8 12 0 7.6-6.2 13.6-21.6 13.6-15.4 0-23.2-7.2-24-17.4h-20.8c.4 20 16.8 32.6 44 32.6 26.8 0 42.2-12.2 42.2-30.2 0-15.2-9.6-24.2-27.6-27.6l-21.2-4.2c-9.6-2-14.8-5.4-14.8-12 0-7.6 7.8-13 20-13 12.8 0 21 5.8 21.6 15.6h20.2c-.4-21-20-31-41.4-31-23.6 0-40.4 11.6-40.4 29.8zM6252.4 44.6h47.8V164h21.4V44.6h48V25.2h-117.2v19.4zm170.03 19.2c-2.6-.2-4.2-.2-5.4-.2-13.8 0-26.2 6.2-32.6 21V65.4h-19.2V164h20.2v-51.6c0-18.4 11.8-28.8 27.4-28.8 3 0 6.2 0 9.6.2v-20zm72.16 1.6v54c0 16.4-9.2 29.8-24.8 29.8-12.6 0-20.8-7.4-20.8-26.4V65.4h-20V128c0 23.2 12 37.8 34.2 37.8 15 0 25.6-6.4 32.2-16.6V164h19.2V65.4h-20zm35.65 27.8c0 15.2 9.6 24.2 27.6 27.6l21.4 4.2c9.6 1.8 14.8 5.6 14.8 12 0 7.6-6.2 13.6-21.6 13.6-15.4 0-23.2-7.2-24-17.4h-20.8c.4 20 16.8 32.6 44 32.6 26.8 0 42.2-12.2 42.2-30.2 0-15.2-9.6-24.2-27.6-27.6l-21.2-4.2c-9.6-2-14.8-5.4-14.8-12 0-7.6 7.8-13 20-13 12.8 0 21 5.8 21.6 15.6h20.2c-.4-21-20-31-41.4-31-23.6 0-40.4 11.6-40.4 29.8zm87.05-10.8h15.8v52.4c0 19.8 9.8 30.6 28.4 30.6 6 0 12.8-.6 18.8-2v-17.2c-4.4 1-9.2 1.6-13.6 1.6-10 0-13.6-6-13.6-17.4v-48h27.2v-17h-27.2V39.8h-19.6v25.6h-16.2v17zm73.77-57.2V164h20.2V25.2h-20.2zm83.99 149.4l41.4-109.2h-21l-27.8 78.6-27.8-78.6h-21.4l38.6 102.4-1 2.6c-3 8.6-9 12.6-19 12.6-3.8 0-7.8-.4-11.4-1v17.2c4 .8 8.8 1 13.2 1 17.4 0 28.8-6.6 36.2-25.6zM6966 147.6c-17.4 0-28.4-11.4-28.4-32.8v-4.6H6916v4.4c0 29 14.2 51.6 50 51.6 36 0 50-22.6 50-51.6V25.2h-21.4v89.6c0 21.4-11 32.8-28.6 32.8zm132.67-82.2v54c0 16.4-9.2 29.8-24.8 29.8-12.6 0-20.8-7.4-20.8-26.4V65.4h-20V128c0 23.2 12 37.8 34.2 37.8 15 0 25.6-6.4 32.2-16.6V164h19.2V65.4h-20zm58.44 98.6v-54.2c0-16.4 9.2-29.6 25.6-29.6 13 0 21.4 7 21.4 26.2V164h20v-62.6c0-23.4-12.2-38-34.8-38-15.4 0-26.2 6.6-33.2 16.6V65.4h-19.2V164h20.2zm84.02-98.6V164h20.2V65.4h-20.2zm-1.6-17h23.4V28.2h-23.4v20.2z" fill="#000"/><g clip-path="url(#clip0_2_110)"><path d="M7439.94 39.077h-7.84c-20.54 0-38.03 16.895-38.03 35.322v56.381c.13 20.822 17.09 37.69 38.11 37.89h7.84c21-.191 37.96-17.026 38.12-37.834v-14.23h-26.19v13.397c0 7.369-6.42 15.063-14.18 15.063h-3.4c-7.84 0-14.2-7.773-14.2-15.063V77.92c0-9.369 6.41-15.244 14.2-15.244h3.38c7.85 0 14.18 5.833 14.18 15.244v13.221h26.21V74.399c0-18.427-17.58-35.322-38.2-35.322zm100.25 0h-7.85c-20.56 0-38.12 16.895-38.12 35.322v56.381c.13 20.859 17.16 37.741 38.2 37.89h7.85c20.99-.191 37.96-17.026 38.12-37.834V74.459c0-18.487-17.56-35.382-38.2-35.382zm12.01 90.926c0 7.369-6.42 15.063-14.19 15.063h-3.39c-7.84 0-14.21-7.773-14.21-15.063V77.92c0-9.369 6.42-15.244 14.21-15.244h3.37c7.85 0 14.19 5.833 14.19 15.244l.02 52.083zm90.53-33.829l-24.68-55.097h-23.15v125.611h25.19v-68.16l20.96 46.385h1.68l21.46-46.385v68.16h25.35V41.077h-21.62l-25.19 55.097zm108.02 34.332l-20.29-89.43h-26.52l30.41 125.612h30.76l32.09-125.611h-26.53l-19.92 89.429zm60.97-89.43h25.85v125.589h-25.85V41.077zm118.61 118.555l4.57 7.015h15.18l-43.69-66.876h-15.18l19.62 30.098c.46.712.7 1.54.7 2.387.01.186.01.376 0 .567-.77 7.164-6.85 12.607-14.12 12.635h-4.14c-7.95-.023-14.39-6.406-14.42-14.291v-54.59c.01-7.913 6.43-14.356 14.42-14.463h4.14c7.96.107 14.33 6.578 14.24 14.467v19.44l25.25 38.765c0-1.014.16-1.944.16-3.07V76.013c0-20.399-16.69-36.936-37.28-36.936h-8.82a37.302 37.302 0 00-26.4 10.778 36.603 36.603 0 00-8.07 11.981 36.681 36.681 0 00-2.81 14.177v55.721c0 20.398 16.69 36.936 37.28 36.936h11.77c9.09.01 17.87-3.301 24.7-9.313a1.955 1.955 0 012.3-.288c.24.134.45.318.62.539l-.02.023z" fill="#000"/></g><g clip-path="url(#clip1_2_110)" fill="#000"><path d="M4207.22 147.893c13.54 0 26.1-5.197 33.56-12.825 1.4-1.402 1.4-3.047 0-4.45l-8.11-8.001c-1.65-1.646-3.31-1.646-5.19 0-3.17 2.785-10.13 7.609-19.52 7.609-11.9 0-21.4-8.133-22.8-21.07h55.23c2.91 0 4.55-.897 4.55-4.188.9-27.407-17.35-45.954-41.05-45.954-24.83 0-40.92 20.435-40.92 44.552.02 26.678 19.28 44.327 44.25 44.327zm-21.16-53.937c0-6.6 6.08-17.255 18.24-17.255 12.92 0 17.36 11.292 17.36 15.61 0 .767-.64 1.645-1.78 1.645h-33.82zM3836.48 48.49h81.84v-17.63a2.798 2.798 0 00-2.8-2.804h-79.04c-1.55 0-2.8 1.252-2.8 2.804v14.826a2.81 2.81 0 002.8 2.804zm-1.79 97.366h80.96c1.47 0 2.69-1.196 2.69-2.692v-15.05c0-1.477-1.2-2.692-2.69-2.692H3832v17.742a2.688 2.688 0 002.69 2.692z"/><path d="M3892.46 48.488L3832 125.42h27.04l59.28-76.932h-25.86zM3968.77 147.893c13.55 0 26.11-5.197 33.57-12.825 1.4-1.402 1.4-3.047 0-4.45l-8.12-8.001c-1.64-1.646-3.3-1.646-5.18 0-3.18 2.785-10.14 7.609-19.52 7.609-11.91 0-21.4-8.133-22.8-21.07h55.23c2.91 0 4.55-.897 4.55-4.188.9-27.407-17.35-45.954-41.05-45.954-24.83 0-40.92 20.435-40.92 44.552.02 26.678 19.28 44.327 44.24 44.327zm-21.16-53.937c0-6.6 6.09-17.255 18.25-17.255 12.91 0 17.36 11.292 17.36 15.61 0 .767-.64 1.645-1.78 1.645h-33.83zm199.8 51.899h-15.44c-1.52 0-2.69-1.178-2.69-2.692V30.747c0-1.514 1.17-2.692 2.69-2.692h15.44c1.52 0 2.69 1.178 2.69 2.692v112.397c0 1.533-1.17 2.711-2.69 2.711zm-113.87 0h15.45c1.34 0 2.69-1.178 2.69-2.692v-63.79h28.38v63.771c0 1.515 1.17 2.693 2.68 2.693h15.45c1.51 0 2.69-1.178 2.69-2.693V80.888c0-.841.67-1.514 1.68-1.514h14.78c1.51 0 2.68-1.01 2.68-2.356v-13.46c0-1.515-1.17-2.524-2.68-2.524h-14.78c-1.01 0-1.68-.842-1.68-1.683V40.674a2.659 2.659 0 00-2.69-2.692h-15.45c-1.51 0-2.68 1.178-2.68 2.692v20.36h-28.38v-20.36c0-1.514-1.35-2.692-2.69-2.692h-15.45a2.659 2.659 0 00-2.69 2.692v18.677c0 .841-.67 1.683-1.68 1.683h-14.94c-1.51 0-2.52 1.01-2.52 2.523v13.125c0 1.514 1.01 2.692 2.52 2.692h14.94c1.01 0 1.68.673 1.68 1.514v62.256c0 1.533 1.18 2.711 2.69 2.711zM4059.54 200.649l-7.83 11.348h4.14l17.89-26.659h-4.06l-7.62 11.666-4.34-11.666h-4.18l6 15.311zm-15.39-16.115c-2.78 0-5.26 1.458-7.13 3.701h-.05l3-19.125h-3.6l-5.52 34.755h3.64l.42-2.898h.12c1.06 2.094 3.17 3.552 5.78 3.552 5.79 0 9.76-4.786 10.62-10.152.82-5.159-1.87-9.833-7.28-9.833zm3.64 9.946c-.6 3.701-3.27 6.824-7.18 6.824-3.81 0-5.42-3.272-4.84-6.824.54-3.496 3.27-6.712 6.98-6.712 3.92 0 5.64 3.047 5.04 6.712zM4192.77 169.109h-12.48c-.86 0-1.59.617-1.72 1.477l-5.06 32.082c-.09.635.4 1.215 1.03 1.215h6.4c.6 0 1.1-.43 1.19-1.028l1.44-9.105c.13-.841.86-1.477 1.72-1.477h3.95c8.23 0 12.97-3.982 14.22-11.89.56-3.459.02-6.17-1.59-8.077-1.77-2.075-4.92-3.197-9.1-3.197zm1.44 11.722c-.69 4.487-4.11 4.487-7.43 4.487h-1.88l1.32-8.394c.07-.505.52-.879 1.03-.879h.85c2.26 0 4.39 0 5.49 1.29.67.786.86 1.926.62 3.496zm-90.52-11.722h-12.48c-.86 0-1.59.617-1.72 1.477l-5.06 32.082c-.09.635.4 1.215 1.03 1.215h5.97c.86 0 1.59-.617 1.72-1.477l1.36-8.656c.13-.841.86-1.477 1.72-1.477h3.95c8.23 0 12.97-3.982 14.22-11.89.56-3.459.02-6.17-1.58-8.077-1.81-2.075-4.95-3.197-9.13-3.197zm1.44 11.722c-.69 4.487-4.11 4.487-7.43 4.487h-1.88l1.32-8.394c.08-.505.52-.879 1.03-.879h.86c2.25 0 4.38 0 5.48 1.29.67.786.86 1.926.62 3.496zm35.88-.131h-5.99c-.52 0-.95.374-1.03.879l-.26 1.683-.41-.598c-1.29-1.889-4.18-2.506-7.07-2.506-6.61 0-12.26 5.011-13.34 12.059-.58 3.515.24 6.861 2.22 9.198 1.83 2.15 4.42 3.048 7.54 3.048 5.32 0 8.28-3.422 8.28-3.422l-.26 1.664c-.09.636.39 1.215 1.03 1.215h5.39c.86 0 1.59-.617 1.72-1.477l3.22-20.509c.03-.152.02-.308-.02-.456a1.04 1.04 0 00-.57-.681c-.14-.064-.3-.097-.45-.097zm-8.32 11.666c-.58 3.422-3.29 5.721-6.76 5.721-1.73 0-3.11-.561-4.01-1.626-.88-1.047-1.21-2.543-.93-4.207.54-3.384 3.3-5.758 6.7-5.758 1.69 0 3.08.561 3.99 1.627.9 1.065 1.27 2.58 1.01 4.243zm97.42-11.666h-5.99c-.51 0-.96.374-1.03.879l-.26 1.683-.41-.598c-1.29-1.889-4.18-2.506-7.07-2.506-6.61 0-12.26 5.011-13.34 12.059-.58 3.515.24 6.861 2.22 9.198 1.82 2.15 4.42 3.048 7.53 3.048 5.32 0 8.29-3.422 8.29-3.422l-.26 1.664c-.1.636.39 1.215 1.02 1.215h5.4c.85 0 1.58-.617 1.71-1.477l3.23-20.509c.08-.673-.41-1.234-1.04-1.234zm-8.34 11.666c-.58 3.422-3.29 5.721-6.76 5.721-1.73 0-3.12-.561-4.01-1.626-.88-1.047-1.21-2.543-.93-4.207.54-3.384 3.3-5.758 6.69-5.758 1.7 0 3.08.561 4 1.627.91 1.065 1.27 2.58 1.01 4.243zm-48.89-11.666h-6.01c-.58 0-1.12.281-1.44.767l-8.28 12.246-3.51-11.76a1.75 1.75 0 00-1.66-1.234h-5.91c-.71 0-1.22.711-.99 1.384l6.62 19.462-6.23 8.805c-.49.692 0 1.645.84 1.645h6.01c.57 0 1.1-.28 1.41-.747l19.99-28.904c.48-.729 0-1.664-.84-1.664zm64.26-10.693l-5.13 32.679a1.04 1.04 0 001.03 1.197h5.15c.85 0 1.58-.617 1.71-1.477l5.06-32.082c.02-.148.01-.299-.03-.443a.992.992 0 00-.21-.391c-.1-.114-.22-.205-.35-.267a1.072 1.072 0 00-.44-.095h-5.76c-.51 0-.94.374-1.03.879"/></g><defs><clipPath id="clip0_2_110"><path fill="#fff" transform="translate(7394 39.076)" d="M0 0h557.143v130.254H0z"/></clipPath><clipPath id="clip1_2_110"><path fill="#fff" transform="translate(3832 28.055)" d="M0 0h413v183.945H0z"/></clipPath></defs></svg>