<svg width="9563" height="213" viewBox="0 0 9563 213" fill="none" xmlns="http://www.w3.org/2000/svg"><path d="M1049.2 171.2c34 0 55-16.4 55-40.6 0-20.2-12.4-32.6-32.6-37l-36.4-8.4c-13.6-3-18.6-9.8-18.6-18.6 0-12.4 12.4-21 30.4-21 17.4 0 30.4 7.6 31.8 24.8h22.2c-.2-27.4-24-42.4-54.2-42.4-29.6 0-51.4 15.8-51.4 39.4 0 20.4 12.4 32.4 32.4 37l36.4 8.4c13.8 3.2 18.8 9.8 18.8 18.6 0 13.2-13.2 22.2-33.2 22.2-20.4 0-35-10.2-36.2-27h-22.2c1 28.8 23 44.6 57.8 44.6zm62.61-51.6c0 32.6 21 51.2 48.6 51.2 23 0 41.6-11 46-32.6h-20.8c-3.2 11-13.2 16.8-25.4 16.8-17.2 0-27.2-14-27.8-29.2h75.6V119c0-32.8-19-50.6-47.4-50.6-29 0-48.8 20.2-48.8 51.2zm20.8-8.6c2.2-16.2 13-27 28.4-27 14.6 0 25.8 10.2 26.6 27h-55zm108.25 58v-54.2c0-16.4 9.2-29.6 25.6-29.6 13 0 21.4 7 21.4 26.2V169h20v-62.6c0-23.4-12.2-38-34.8-38-15.4 0-26.2 6.6-33.2 16.6V70.4h-19.2V169h20.2zm122.41-100.6c-24.6 0-44.4 18.6-44.4 51.4 0 32.6 20 51 44 51 14.6 0 26.4-5.4 33.6-15.8v14h19.2V30.2h-20v53.6c-7.8-10.4-19-15.4-32.4-15.4zm5.2 16.4c18.4 0 28.4 15.2 28.4 35 0 19.6-10 34.8-28.4 34.8-18.6 0-28.6-15.2-28.6-34.8 0-19.8 10-35 28.6-35zm65.1-14.4V169h20.2V70.4h-20.2zm-1.6-17h23.4V33.2h-23.4v20.2zm94.19-23.6c-4.2-1-10.2-1.4-14.8-1.4-20.2 0-32.6 10.8-32.6 32.2v9.8h-15.8v17h15.8V169h20V87.4h27.4v-17h-27.4V62c0-11.8 5.2-16.4 15.6-16.4 3.8 0 9.4.6 11.8 1.2v-17zm54.99 149.8l41.4-109.2h-21l-27.8 78.6-27.8-78.6h-21.4l38.6 102.4-1 2.6c-3 8.6-9 12.6-19 12.6-3.8 0-7.8-.4-11.4-1v17.2c4 .8 8.8 1 13.2 1 17.4 0 28.8-6.6 36.2-25.6zM2230.4 169h22.8L2296 53.6V169h20.6V30.2h-31.4L2242 146.6l-43.2-116.4h-31.6V169h20.6V53.6l42.6 115.4zm106.19-98.6V169h20.2V70.4h-20.2zm-1.6-17h23.4V33.2h-23.4v20.2zm60.19 115.6v-54.2c0-16.4 9.2-29.6 25.6-29.6 13 0 21.4 7 21.4 26.2V169h20v-62.6c0-23.4-12.2-38-34.8-38-15.4 0-26.2 6.6-33.2 16.6V70.4h-19.2V169h20.2zM2517.6 68.4c-24.6 0-44.4 18.6-44.4 51.4 0 32.6 20 51 44 51 14.6 0 26.4-5.4 33.6-15.8v14h19.2V30.2h-20v53.6c-7.8-10.4-19-15.4-32.4-15.4zm5.2 16.4c18.4 0 28.4 15.2 28.4 35 0 19.6-10 34.8-28.4 34.8-18.6 0-28.6-15.2-28.6-34.8 0-19.8 10-35 28.6-35zm65.1-54.6V169h20.2V30.2h-20.2zm32.19 89.4c0 32.6 21 51.2 48.6 51.2 23 0 41.6-11 46-32.6h-20.8c-3.2 11-13.2 16.8-25.4 16.8-17.2 0-27.2-14-27.8-29.2h75.6V119c0-32.8-19-50.6-47.4-50.6-29 0-48.8 20.2-48.8 51.2zm20.8-8.6c2.2-16.2 13-27 28.4-27 14.6 0 25.8 10.2 26.6 27h-55zm145.25-42.2c-2.6-.2-4.2-.2-5.4-.2-13.8 0-26.2 6.2-32.6 21V70.4h-19.2V169h20.2v-51.6c0-18.4 11.8-28.8 27.4-28.8 3 0 6.2 0 9.6.2v-20zM2920.4 169h21.4v-60.4h64.8V90h-64.8V49h73.8V30.2h-95.2V169zm167-98.6v54c0 16.4-9.2 29.8-24.8 29.8-12.6 0-20.8-7.4-20.8-26.4V70.4h-20V133c0 23.2 12 37.8 34.2 37.8 15 0 25.6-6.4 32.2-16.6V169h19.2V70.4h-20zm95.44-1.6c-2.6-.2-4.2-.2-5.4-.2-13.8 0-26.2 6.2-32.6 21V70.4h-19.2V169h20.2v-51.6c0-18.4 11.8-28.8 27.4-28.8 3 0 6.2 0 9.6.2v-20zM3257.6 169h20v-62.6c0-23.4-12.2-38-34.8-38-13.8 0-25.2 5.4-32.2 16V30.2h-20.2V169h20.2v-54.4c0-16.2 9.2-29.4 25.6-29.4 13 0 21.4 7 21.4 26V169zm119.81 0v-65c0-24.6-16.2-35.6-42.6-35.6-23 0-41.2 10-42.2 31.2h20.4c.8-10.2 8.4-15.6 21.8-15.6s23 5 23 18v4.2l-36.8 6.2c-18 3.2-31.8 12.4-31.8 30 0 18.8 15.4 28.4 33.4 28.4 14.6 0 28.6-5 36.4-17.2V169h18.4zm-50.4-13.8c-11.6 0-18-5.2-18-13 0-8.8 5.6-13.6 17.8-15.8l31-5.2v6.2c0 19-15.4 27.8-30.8 27.8zm57.72-67.8h15.8v52.4c0 19.8 9.8 30.6 28.4 30.6 6 0 12.8-.6 18.8-2v-17.2c-4.4 1-9.2 1.6-13.6 1.6-10 0-13.6-6-13.6-17.4v-48h27.2v-17h-27.2V44.8h-19.6v25.6h-16.2v17zm107.53 81.6h21.4v-56.6h36.6l34 56.6h24.2l-36-60c18.2-5 29.8-18 29.8-38.2 0-26.4-17.6-40.6-49.4-40.6h-60.6V169zm21.4-74.6V48.2h37.2c18.2 0 29.2 6.2 29.2 23.2 0 16.8-11 23-29.2 23h-37.2zm146.85 76.4c29.4 0 49.6-19.2 49.6-51s-20.2-51.4-49.6-51.4c-29.2 0-49.4 19.6-49.4 51.4 0 31.8 20.2 51 49.4 51zm0-16.2c-18.4 0-28.4-15.2-28.4-34.8 0-19.8 10-35 28.4-35 18.6 0 28.6 15.2 28.6 35 0 19.6-10 34.8-28.6 34.8zm114-86.2c-13.4 0-24.8 5-32.4 15.4V30.2h-20.2V169h19.2v-14c7.4 10.4 19 15.8 33.6 15.8 24 0 44-18.4 44-51 0-32.8-19.8-51.4-44.2-51.4zm-5.2 16.4c18.4 0 28.4 15.2 28.4 35 0 19.6-10 34.8-28.4 34.8-18.6 0-28.6-15.2-28.6-34.8 0-19.8 10-35 28.6-35zm104.51 86c29.4 0 49.6-19.2 49.6-51s-20.2-51.4-49.6-51.4c-29.2 0-49.4 19.6-49.4 51.4 0 31.8 20.2 51 49.4 51zm0-16.2c-18.4 0-28.4-15.2-28.4-34.8 0-19.8 10-35 28.4-35 18.6 0 28.6 15.2 28.6 35 0 19.6-10 34.8-28.6 34.8zm51.8-67.2h15.8v52.4c0 19.8 9.8 30.6 28.4 30.6 6 0 12.8-.6 18.8-2v-17.2c-4.4 1-9.2 1.6-13.6 1.6-10 0-13.6-6-13.6-17.4v-48h27.2v-17h-27.2V44.8h-19.6v25.6h-16.2v17zm73.77-17V169h20.2V70.4h-20.2zm-1.6-17h23.4V33.2h-23.4v20.2zm54.79 66.2c0-20.4 10.4-34.8 28.4-34.8 12.4 0 22.6 7.4 24.2 20.2h20.8c-2.4-22.6-20.2-36.6-45-36.6-29.2 0-49.4 19.4-49.4 51.2 0 31.8 20.2 51.2 49.4 51.2 24.8 0 42.6-13.8 45-36.4h-20.8c-1.6 12.6-11.8 20.2-24.2 20.2-18 0-28.4-14.6-28.4-35zm83.3-21.4c0 15.2 9.6 24.2 27.6 27.6l21.4 4.2c9.6 1.8 14.8 5.6 14.8 12 0 7.6-6.2 13.6-21.6 13.6-15.4 0-23.2-7.2-24-17.4h-20.8c.4 20 16.8 32.6 44 32.6 26.8 0 42.2-12.2 42.2-30.2 0-15.2-9.6-24.2-27.6-27.6l-21.2-4.2c-9.6-2-14.8-5.4-14.8-12 0-7.6 7.8-13 20-13 12.8 0 21 5.8 21.6 15.6h20.2c-.4-21-20-31-41.4-31-23.6 0-40.4 11.6-40.4 29.8zM4370.4 165h94.2v-19.4h-72.8V26.2h-21.4V165zm96.98-49.4c0 32.6 21 51.2 48.6 51.2 23 0 41.6-11 46-32.6h-20.8c-3.2 11-13.2 16.8-25.4 16.8-17.2 0-27.2-14-27.8-29.2h75.6V115c0-32.8-19-50.6-47.4-50.6-29 0-48.8 20.2-48.8 51.2zm20.8-8.6c2.2-16.2 13-27 28.4-27 14.6 0 25.8 10.2 26.6 27h-55zm81.85 8.6c0 32.6 21 51.2 48.6 51.2 23 0 41.6-11 46-32.6h-20.8c-3.2 11-13.2 16.8-25.4 16.8-17.2 0-27.2-14-27.8-29.2h75.6V115c0-32.8-19-50.6-47.4-50.6-29 0-48.8 20.2-48.8 51.2zm20.8-8.6c2.2-16.2 13-27 28.4-27 14.6 0 25.8 10.2 26.6 27h-55zm145.25-42.2c-2.6-.2-4.2-.2-5.4-.2-13.8 0-26.2 6.2-32.6 21V66.4h-19.2V165h20.2v-51.6c0-18.4 11.8-28.8 27.4-28.8 3 0 6.2 0 9.6.2v-20zm49.58 102c29.4 0 49.6-19.2 49.6-51s-20.2-51.4-49.6-51.4c-29.2 0-49.4 19.6-49.4 51.4 0 31.8 20.2 51 49.4 51zm0-16.2c-18.4 0-28.4-15.2-28.4-34.8 0-19.8 10-35 28.4-35 18.6 0 28.6 15.2 28.6 35 0 19.6-10 34.8-28.6 34.8zm105.24 25l41.4-109.2h-21l-27.8 78.6-27.8-78.6h-21.4l38.6 102.4-1 2.6c-3 8.6-9 12.6-19 12.6-3.8 0-7.8-.4-11.4-1v17.2c4 .8 8.8 1 13.2 1 17.4 0 28.8-6.6 36.2-25.6zM5782.8 69.8c0-30.4-19.4-43.6-51.6-43.6h-54.8V165h21.4v-51.8h33.4c32.2 0 51.6-13.2 51.6-43.4zm-22.2 0c0 17.6-9 25.4-30.4 25.4h-32.4v-51h32.4c21.4 0 30.4 7.8 30.4 25.6zm31.87-43.6V165h20.2V26.2h-20.2zM5913.66 165v-65c0-24.6-16.2-35.6-42.6-35.6-23 0-41.2 10-42.2 31.2h20.4c.8-10.2 8.4-15.6 21.8-15.6s23 5 23 18v4.2l-36.8 6.2c-18 3.2-31.8 12.4-31.8 30 0 18.8 15.4 28.4 33.4 28.4 14.6 0 28.6-5 36.4-17.2V165h18.4zm-50.4-13.8c-11.6 0-18-5.2-18-13 0-8.8 5.6-13.6 17.8-15.8l31-5.2v6.2c0 19-15.4 27.8-30.8 27.8zm87.52 13.8v-54.2c0-16.4 9.2-29.6 25.6-29.6 13 0 21.4 7 21.4 26.2V165h20v-62.6c0-23.4-12.2-38-34.8-38-15.4 0-26.2 6.6-33.2 16.6V66.4h-19.2V165h20.2zm74.41-81.6h15.8v52.4c0 19.8 9.8 30.6 28.4 30.6 6 0 12.8-.6 18.8-2v-17.2c-4.4 1-9.2 1.6-13.6 1.6-10 0-13.6-6-13.6-17.4v-48h27.2v-17h-27.2V40.8h-19.6v25.6h-16.2v17zm156.57 81.6v-65c0-24.6-16.2-35.6-42.6-35.6-23 0-41.2 10-42.2 31.2h20.4c.8-10.2 8.4-15.6 21.8-15.6s23 5 23 18v4.2l-36.8 6.2c-18 3.2-31.8 12.4-31.8 30 0 18.8 15.4 28.4 33.4 28.4 14.6 0 28.6-5 36.4-17.2V165h18.4zm-50.4-13.8c-11.6 0-18-5.2-18-13 0-8.8 5.6-13.6 17.8-15.8l31-5.2v6.2c0 19-15.4 27.8-30.8 27.8zM6437.8 165h22.6l-54.6-138.8h-26.6L6324.8 165h22l14-35.6h63.2l13.8 35.6zm-45.4-119.8l25.2 66h-50.4l25.2-66zm72.53 49c0 15.2 9.6 24.2 27.6 27.6l21.4 4.2c9.6 1.8 14.8 5.6 14.8 12 0 7.6-6.2 13.6-21.6 13.6-15.4 0-23.2-7.2-24-17.4h-20.8c.4 20 16.8 32.6 44 32.6 26.8 0 42.2-12.2 42.2-30.2 0-15.2-9.6-24.2-27.6-27.6l-21.2-4.2c-9.6-2-14.8-5.4-14.8-12 0-7.6 7.8-13 20-13 12.8 0 21 5.8 21.6 15.6h20.2c-.4-21-20-31-41.4-31-23.6 0-40.4 11.6-40.4 29.8zm87.06-10.8h15.8v52.4c0 19.8 9.8 30.6 28.4 30.6 6 0 12.8-.6 18.8-2v-17.2c-4.4 1-9.2 1.6-13.6 1.6-10 0-13.6-6-13.6-17.4v-48h27.2v-17h-27.2V40.8h-19.6v25.6h-16.2v17zm130.97-18.6c-2.6-.2-4.2-.2-5.4-.2-13.8 0-26.2 6.2-32.6 21V66.4h-19.2V165h20.2v-51.6c0-18.4 11.8-28.8 27.4-28.8 3 0 6.2 0 9.6.2v-20zm7.56 1.6V165h20.2V66.4h-20.2zm-1.6-17h23.4V29.2h-23.4v20.2zm78.39 15c-24.6 0-44.4 18.6-44.4 51.4 0 32.6 20 51 44 51 14.6 0 26.4-5.4 33.6-15.8v14h19.2V26.2h-20v53.6c-7.8-10.4-19-15.4-32.4-15.4zm5.2 16.4c18.4 0 28.4 15.2 28.4 35 0 19.6-10 34.8-28.4 34.8-18.6 0-28.6-15.2-28.6-34.8 0-19.8 10-35 28.6-35zM6976.4 165h21.4v-60.4h64.8V86h-64.8V45h73.8V26.2h-95.2V165zm159.01-100.2c-2.6-.2-4.2-.2-5.4-.2-13.8 0-26.2 6.2-32.6 21V66.4h-19.2V165h20.2v-51.6c0-18.4 11.8-28.8 27.4-28.8 3 0 6.2 0 9.6.2v-20zm49.59 102c29.4 0 49.6-19.2 49.6-51s-20.2-51.4-49.6-51.4c-29.2 0-49.4 19.6-49.4 51.4 0 31.8 20.2 51 49.4 51zm0-16.2c-18.4 0-28.4-15.2-28.4-34.8 0-19.8 10-35 28.4-35 18.6 0 28.6 15.2 28.6 35 0 19.6-10 34.8-28.6 34.8zm99.8-86.2c-24.6 0-44.4 18.6-44.4 51.4 0 32.6 20 51 44 51 14.6 0 26.4-5.4 33.6-15.8v14h19.2V26.2h-20v53.6c-7.8-10.4-19-15.4-32.4-15.4zm5.2 16.4c18.4 0 28.4 15.2 28.4 35 0 19.6-10 34.8-28.4 34.8-18.6 0-28.6-15.2-28.6-34.8 0-19.8 10-35 28.6-35zm147.9 84.2v-65c0-24.6-16.2-35.6-42.6-35.6-23 0-41.2 10-42.2 31.2h20.4c.8-10.2 8.4-15.6 21.8-15.6s23 5 23 18v4.2l-36.8 6.2c-18 3.2-31.8 12.4-31.8 30 0 18.8 15.4 28.4 33.4 28.4 14.6 0 28.6-5 36.4-17.2V165h18.4zm-50.4-13.8c-11.6 0-18-5.2-18-13 0-8.8 5.6-13.6 17.8-15.8l31-5.2v6.2c0 19-15.4 27.8-30.8 27.8zM7647.2 167.2c33.6 0 56.8-18.2 56.8-56.4V26.2h-21.4v84.6c0 24-13.8 37.8-35.4 37.8-21.4 0-35.2-13.8-35.2-37.8V26.2h-21.4v84.6c0 38.2 23.2 56.4 56.6 56.4zm126.98-.4c24.4 0 44.2-18.4 44.2-51.2 0-32.6-20-51.2-44-51.2-14.6 0-26.2 5.6-33.6 16v-14h-19.2V200h20.2v-48.4c7.6 10.4 19 15.2 32.4 15.2zm-5.2-16.2c-18.6 0-28.6-15.2-28.6-35 0-19.6 10-34.8 28.6-34.8 18.4 0 28.4 15.2 28.4 34.8 0 19.8-10 35-28.4 35zm58.7-56.4c0 15.2 9.6 24.2 27.6 27.6l21.4 4.2c9.6 1.8 14.8 5.6 14.8 12 0 7.6-6.2 13.6-21.6 13.6-15.4 0-23.2-7.2-24-17.4h-20.8c.4 20 16.8 32.6 44 32.6 26.8 0 42.2-12.2 42.2-30.2 0-15.2-9.6-24.2-27.6-27.6l-21.2-4.2c-9.6-2-14.8-5.4-14.8-12 0-7.6 7.8-13 20-13 12.8 0 21 5.8 21.6 15.6h20.2c-.4-21-20-31-41.4-31-23.6 0-40.4 11.6-40.4 29.8zm179.46 70.8v-65c0-24.6-16.2-35.6-42.6-35.6-23 0-41.2 10-42.2 31.2h20.4c.8-10.2 8.4-15.6 21.8-15.6s23 5 23 18v4.2l-36.8 6.2c-18 3.2-31.8 12.4-31.8 30 0 18.8 15.4 28.4 33.4 28.4 14.6 0 28.6-5 36.4-17.2V165h18.4zm-50.4-13.8c-11.6 0-18-5.2-18-13 0-8.8 5.6-13.6 17.8-15.8l31-5.2v6.2c0 19-15.4 27.8-30.8 27.8zm67.31-125V165h20.2V26.2h-20.2zm32.2 89.4c0 32.6 21 51.2 48.6 51.2 23 0 41.6-11 46-32.6h-20.8c-3.2 11-13.2 16.8-25.4 16.8-17.2 0-27.2-14-27.8-29.2h75.6V115c0-32.8-19-50.6-47.4-50.6-29 0-48.8 20.2-48.8 51.2zm20.8-8.6c2.2-16.2 13-27 28.4-27 14.6 0 25.8 10.2 26.6 27h-55zm85.44-12.8c0 15.2 9.6 24.2 27.6 27.6l21.4 4.2c9.6 1.8 14.8 5.6 14.8 12 0 7.6-6.2 13.6-21.6 13.6-15.4 0-23.2-7.2-24-17.4h-20.8c.4 20 16.8 32.6 44 32.6 26.8 0 42.2-12.2 42.2-30.2 0-15.2-9.6-24.2-27.6-27.6l-21.2-4.2c-9.6-2-14.8-5.4-14.8-12 0-7.6 7.8-13 20-13 12.8 0 21 5.8 21.6 15.6h20.2c-.4-21-20-31-41.4-31-23.6 0-40.4 11.6-40.4 29.8zM8492.8 69.8c0-30.4-19.4-43.6-51.6-43.6h-54.8V165h21.4v-51.8h33.4c32.2 0 51.6-13.2 51.6-43.4zm-22.2 0c0 17.6-9 25.4-30.4 25.4h-32.4v-51h32.4c21.4 0 30.4 7.8 30.4 25.6zm113.5 95.2v-65c0-24.6-16.2-35.6-42.6-35.6-23 0-41.2 10-42.2 31.2h20.4c.8-10.2 8.4-15.6 21.8-15.6s23 5 23 18v4.2l-36.8 6.2c-18 3.2-31.8 12.4-31.8 30 0 18.8 15.4 28.4 33.4 28.4 14.6 0 28.6-5 36.4-17.2V165h18.4zm-50.4-13.8c-11.6 0-18-5.2-18-13 0-8.8 5.6-13.6 17.8-15.8l31-5.2v6.2c0 19-15.4 27.8-30.8 27.8zm112.13 24.4l41.4-109.2h-21l-27.8 78.6-27.8-78.6h-21.4l38.6 102.4-1 2.6c-3 8.6-9 12.6-19 12.6-3.8 0-7.8-.4-11.4-1v17.2c4 .8 8.8 1 13.2 1 17.4 0 28.8-6.6 36.2-25.6zm39.92-60c0 32.6 21 51.2 48.6 51.2 23 0 41.6-11 46-32.6h-20.8c-3.2 11-13.2 16.8-25.4 16.8-17.2 0-27.2-14-27.8-29.2h75.6V115c0-32.8-19-50.6-47.4-50.6-29 0-48.8 20.2-48.8 51.2zm20.8-8.6c2.2-16.2 13-27 28.4-27 14.6 0 25.8 10.2 26.6 27h-55zm145.24-42.2c-2.6-.2-4.2-.2-5.4-.2-13.8 0-26.2 6.2-32.6 21V66.4h-19.2V165h20.2v-51.6c0-18.4 11.8-28.8 27.4-28.8 3 0 6.2 0 9.6.2v-20zM9036.2 167.2c7.2 0 13.8-1 20-2.8l21.2 25.6h25.4l-27.6-33.8c18.2-12 28.8-33.4 28.8-60.6 0-43-26.8-71.6-67.8-71.6s-67.8 28.6-67.8 71.6c0 43 26.8 71.6 67.8 71.6zm0-18.4c-25.8 0-45.2-20.2-45.2-53.2s19.4-53.2 45.2-53.2c25.8 0 45.4 20.2 45.4 53.2s-19.6 53.2-45.4 53.2zm163.09 16.2v-65c0-24.6-16.2-35.6-42.6-35.6-23 0-41.2 10-42.2 31.2h20.4c.8-10.2 8.4-15.6 21.8-15.6s23 5 23 18v4.2l-36.8 6.2c-18 3.2-31.8 12.4-31.8 30 0 18.8 15.4 28.4 33.4 28.4 14.6 0 28.6-5 36.4-17.2V165h18.4zm-50.4-13.8c-11.6 0-18-5.2-18-13 0-8.8 5.6-13.6 17.8-15.8l31-5.2v6.2c0 19-15.4 27.8-30.8 27.8zm119.92 15.6c24.4 0 44.2-18.4 44.2-51.2 0-32.6-20-51.2-44-51.2-14.6 0-26.2 5.6-33.6 16v-14h-19.2V200h20.2v-48.4c7.6 10.4 19 15.2 32.4 15.2zm-5.2-16.2c-18.6 0-28.6-15.2-28.6-35 0-19.6 10-34.8 28.6-34.8 18.4 0 28.4 15.2 28.4 34.8 0 19.8-10 35-28.4 35zm61.3-84.2V165h20.2V66.4h-20.2zm-1.6-17h23.4V29.2h-23.4v20.2zm30.39 34h15.8v52.4c0 19.8 9.8 30.6 28.4 30.6 6 0 12.8-.6 18.8-2v-17.2c-4.4 1-9.2 1.6-13.6 1.6-10 0-13.6-6-13.6-17.4v-48h27.2v-17h-27.2V40.8h-19.6v25.6h-16.2v17zm156.58 81.6v-65c0-24.6-16.2-35.6-42.6-35.6-23 0-41.2 10-42.2 31.2h20.4c.8-10.2 8.4-15.6 21.8-15.6s23 5 23 18v4.2l-36.8 6.2c-18 3.2-31.8 12.4-31.8 30 0 18.8 15.4 28.4 33.4 28.4 14.6 0 28.6-5 36.4-17.2V165h18.4zm-50.4-13.8c-11.6 0-18-5.2-18-13 0-8.8 5.6-13.6 17.8-15.8l31-5.2v6.2c0 19-15.4 27.8-30.8 27.8zm67.32-125V165h20.2V26.2h-20.2z" fill="#000"/><rect x="909" y="93.059" width="32" height="32" rx="16" fill="#000"/><rect x="2077" y="93.059" width="32" height="32" rx="16" fill="#000"/><rect x="1666" y="93.059" width="32" height="32" rx="16" fill="#000"/><rect x="2830" y="93.059" width="32" height="32" rx="16" fill="#000"/><rect x="8297" y="105" width="32" height="32" rx="16" fill="#000"/><rect x="8887" y="105" width="32" height="32" rx="16" fill="#000"/><rect x="4269" y="93.059" width="32" height="32" rx="16" fill="#000"/><rect x="5575" y="93.059" width="32" height="32" rx="16" fill="#000"/><rect x="6236" y="93.059" width="32" height="32" rx="16" fill="#000"/><rect x="6875" y="93.059" width="32" height="32" rx="16" fill="#000"/><rect x="7492" y="93.059" width="32" height="32" rx="16" fill="#000"/><rect x="4975" y="89" width="32" height="32" rx="16" fill="#000"/><path fill-rule="evenodd" clip-rule="evenodd" d="M1952.71 5.431c9.72-4.86 14.71-4.113 14.84.747.12 6.356-.88 14.832-1.51 20.939-3.73 33.154-9.72 60.2-10.22 94.35 16.09-41.63 29.43-70.296 46.76-105.816 5.49-11.342 9.1-9.224 13.59-11.342 17.58-7.854 18.2-2.993 15.83 6.728-8.47 35.274-30.17 146.823-33.53 163.901-1 4.986-6.49 2.991-7.73.998-6.49-8.601-13.47-8.727-12.72-14.584 3.99-28.416 18.2-100.332 21.82-117.284-18.83 38.386-38.28 86.622-48.25 113.792-2.12 5.734-5.99 5.362-8.36 1.123-3.49-6.109-9.97-9.099-10.97-16.078-3.49-22.312 3.87-64.937 4.86-91.983-10.1 29.414-27.3 86.748-34.78 112.545-3.12 10.721-13.47 8.851-10.72-1.37 11.47-43.499 36.03-120.15 46.62-147.696 2.5-6.602 9.1-6.228 14.47-8.97zM1890.62.073c-3.37-.747-13.09 4.486-19.08 5.36-1.87.5-3.61 2.368-4.24 3.862-9.47 21.81-17.95 42.503-25.18 61.195a1146.6 1146.6 0 00-32.67 6.482c8.85-22.434 17.71-44.742 26.31-66.058 4.24-10.718-6.98-11.715-11.35-.996-5.61 13.835-16.21 39.882-27.93 70.172-8.6 2.119-17.95 4.486-27.42 7.354-6.99 1.868-7.24 3.736-4.25 7.977 1.75 2.242 4.99 1.993 6.61 3.74 4.12 4.235 6.61 9.346 13.97 10.093-6.74 17.45-13.22 35.273-18.95 52.348-3.74 10.843 6.85 13.087 10.84 1.621 6.49-18.321 13.34-36.892 20.45-55.715 5.86-1.245 19.95-4.236 33.04-7.228-10.35 28.666-17.08 50.229-19.82 60.823-.5 1.993.5 2.991.87 3.987 3.37 4.986 6.86 5.235 11.34 11.593 1.13 1.746 5.24 2.616 6.74-1.621 8.94-27.123 18.45-54.05 28.55-80.764 3.86-.998 10.85-2.619 15.09-8.85 7.48-11.218 9.6-8.972 11.59-12.34 2.25-4.36.62-8.225-7.35-7.353 0 0-3 .25-8.73.874 8.97-22.81 16.96-42.127 22.44-56.96 1.87-5.11 2.12-8.85-.87-9.596z" fill="#000"/><path fill-rule="evenodd" clip-rule="evenodd" d="M1882.21 141.686c1.29-1.651 2.46-3.356 3.51-4.93 4.69-7.015.13-11.139-4.7-7.009a62.14 62.14 0 00-2.12 2.064c-.8-2.503-1.58-5.008-2.36-7.515 2.21-2.742 4.37-5.556 6.21-8.44 7.76-12.164-7.43-19.145-14-11.26-3.46 4.13-2.6 8.259-1.61 11.887.29 1.091.74 2.649 1.29 4.539a169.51 169.51 0 00-6.99 7.848c-7.55 8.762-5.45 20.043 2.48 22.525 4.78 1.499 9.3-.685 13.21-4.169.18.497.37.97.54 1.418 2.11 5.256 8.67 3.629 6.07-2.753-.42-1.073-.94-2.516-1.53-4.205zm-10.75-11.026c.64 2.043 1.33 4.19 2.02 6.245-.86.727-1.74 1.462-2.62 1.978-3.07 1.795-5.33-.125-1.37-5.506.65-.929 1.32-1.829 1.97-2.717zm2.48-15.323c-.23-.582-.36-1.153-.48-1.607-2.22-8.386 7.29-6.146 2.48-.625-.69.782-1.31 1.556-2 2.232z" fill="#000"/><g clip-path="url(#clip0_2_109)"><path d="M5072 58.687v23.718l63.88-7.032V49.748L5072 58.687zm20.38 25.148v81.166h23.36v-83.55l-23.36 2.384zm52.09-35.279v116.445h24.67V45.1l-24.67 3.456zm29.2-4.052V71.32l35.51-3.933v-27.89l-35.51 5.006zm0 46.602v27.293l23.36-1.311v-27.89l-23.36 1.908zm0 46.959v26.936h35.51v-28.009l-35.51 1.073zm127.64-111.558V165h32.3V21.978l-32.3 4.529zm38.26-5.364v31.823l47.08-5.125V14.47l-47.08 6.674zm0 55.78v32.418l30.87-1.669V74.3l-30.87 2.623zm0 56.136v31.942h47.08v-33.372l-47.08 1.43zm-120.85-94.991v126.814h28.01V34.135l-28.01 3.933zm33.25 97.613v29.201h40.76v-30.393l-40.76 1.192zM5492.25 12.92C5482 3.265 5467.1-.668 5450.65 1.716v35.28c6.68-.358 12.04 2.145 14.43 7.031 3.81 7.866-.12 19.547-9.3 30.393-14.18 16.805-51.97 51.011-51.97 51.011l54.23-1.788c33.14-32.299 45.06-51.965 47.08-76.517 1.07-12.872-3.57-25.387-12.87-34.206zM5507.03 165v-36.948l-109.89 3.337 109.89 33.611zm-109.89-33.73v33.611h109.89l-109.89-33.611zm47.2-128.84c-31.94 6.794-47.56 30.273-45.77 68.651l34.09-2.98c-1.55-21.691 5.12-26.816 11.8-29.557l-.12-36.114z" fill="#141414"/></g><path d="M123.8 73.8c0-30.4-19.4-43.6-51.6-43.6H17.4V169h21.4v-51.8h33.4c32.2 0 51.6-13.2 51.6-43.4zm-22.2 0c0 17.6-9 25.4-30.4 25.4H38.8v-51h32.4c21.4 0 30.4 7.8 30.4 25.6zm89.069-5c-2.6-.2-4.2-.2-5.4-.2-13.8 0-26.2 6.2-32.6 21V70.4h-19.2V169h20.2v-51.6c0-18.4 11.8-28.8 27.4-28.8 3 0 6.2 0 9.6.2v-20zm7.558 1.6V169h20.2V70.4h-20.2zm-1.6-17h23.4V33.2h-23.4v20.2zm186.79 53c0-26.8-14.8-38-34.4-38-15.8 0-25.8 7-33 17.2-5.4-11.2-15.8-17.2-29.8-17.2-14.8 0-24.8 7.8-30.4 16.6V70.4h-19.2V169h20.2v-54.4c0-18.4 10.4-29.2 22.8-29.2 14 0 20.6 8 20.6 25.2V169h19.8v-57c0-17.6 11.4-26.6 23-26.6 13.6 0 20.6 8 20.6 24.2V169h19.8v-62.6zm10.781 13.2c0 32.6 21 51.2 48.6 51.2 23 0 41.6-11 46-32.6h-20.8c-3.2 11-13.2 16.8-25.4 16.8-17.2 0-27.2-14-27.8-29.2h75.6V119c0-32.8-19-50.6-47.4-50.6-29 0-48.8 20.2-48.8 51.2zm20.8-8.6c2.2-16.2 13-27 28.4-27 14.6 0 25.8 10.2 26.6 27h-55zm78.449-23.6h15.8v52.4c0 19.8 9.8 30.6 28.4 30.6 6 0 12.8-.6 18.8-2v-17.2c-4.4 1-9.2 1.6-13.6 1.6-10 0-13.6-6-13.6-17.4v-48h27.2v-17h-27.2V44.8h-19.6v25.6h-16.2v17zm73.772-17V169h20.2V70.4h-20.2zm-1.6-17h23.4V33.2h-23.4v20.2zm186.79 53c0-26.8-14.8-38-34.4-38-15.8 0-25.8 7-33 17.2-5.4-11.2-15.8-17.2-29.8-17.2-14.8 0-24.8 7.8-30.4 16.6V70.4h-19.2V169h20.2v-54.4c0-18.4 10.4-29.2 22.8-29.2 14 0 20.6 8 20.6 25.2V169h19.8v-57c0-17.6 11.4-26.6 23-26.6 13.6 0 20.6 8 20.6 24.2V169h19.8v-62.6zm10.782 13.2c0 32.6 21 51.2 48.6 51.2 23 0 41.6-11 46-32.6h-20.8c-3.2 11-13.2 16.8-25.4 16.8-17.2 0-27.2-14-27.8-29.2h75.6V119c0-32.8-19-50.6-47.4-50.6-29 0-48.8 20.2-48.8 51.2zm20.8-8.6c2.2-16.2 13-27 28.4-27 14.6 0 25.8 10.2 26.6 27h-55z" fill="#000"/><defs><clipPath id="clip0_2_109"><path fill="#fff" transform="translate(5072 1)" d="M0 0h435.029v164H0z"/></clipPath></defs></svg>